<svg width="14" height="16" viewBox="0 0 14 16" fill="none" xmlns="http://www.w3.org/2000/svg">
<path d="M0.292969 8.58398C0.46875 8.4082 0.683594 8.32031 0.9375 8.32031C1.21094 8.32031 1.43555 8.4082 1.61133 8.58398L5.68359 12.7148C5.68359 12.6758 5.67383 12.6074 5.6543 12.5098C5.6543 12.3926 5.6543 12.1387 5.6543 11.748C5.6543 11.3574 5.64453 10.7617 5.625 9.96094C5.625 9.14062 5.625 8.00781 5.625 6.5625H7.5L7.4707 12.7148L11.543 8.58398C11.7188 8.4082 11.9336 8.32031 12.1875 8.32031C12.4609 8.32031 12.6855 8.4082 12.8613 8.58398C13.0371 8.7793 13.125 9.00391 13.125 9.25781C13.125 9.51172 13.0371 9.72656 12.8613 9.90234L7.23633 15.6738C7.19727 15.6738 7.14844 15.7031 7.08984 15.7617C7.05078 15.7812 7.01172 15.8008 6.97266 15.8203C6.95312 15.8398 6.92383 15.8594 6.88477 15.8789L6.73828 15.9082C6.71875 15.9277 6.66016 15.9375 6.5625 15.9375C6.54297 15.9375 6.50391 15.9277 6.44531 15.9082C6.40625 15.9082 6.33789 15.8984 6.24023 15.8789C6.20117 15.8594 6.17188 15.8398 6.15234 15.8203C6.15234 15.8203 6.13281 15.8105 6.09375 15.791C6.05469 15.7715 6.02539 15.752 6.00586 15.7324C6.00586 15.7324 5.98633 15.7227 5.94727 15.7031L5.91797 15.6738H5.88867L0.292969 9.90234C0.0976562 9.72656 0 9.51172 0 9.25781C0 9.00391 0.0976562 8.7793 0.292969 8.58398ZM5.625 4.6875H7.5V5.625H5.625V4.6875ZM5.625 2.8125H7.5V3.75H5.625V2.8125ZM7.5 0.9375V1.875H5.625V0.9375H7.5Z" fill="#C7E2FF"/>
</svg>
