<svg width="14" height="16" viewBox="0 0 14 16" fill="none" xmlns="http://www.w3.org/2000/svg">
<path d="M13.707 7.41602C13.5312 7.5918 13.3164 7.67969 13.0625 7.67969C12.7891 7.67969 12.5645 7.5918 12.3887 7.41602L8.31641 3.28516C8.31641 3.32422 8.32617 3.39258 8.3457 3.49023C8.3457 3.60742 8.3457 3.86133 8.3457 4.25195C8.3457 4.64258 8.35547 5.23828 8.375 6.03906C8.375 6.85938 8.375 7.99219 8.375 9.4375L6.5 9.4375L6.5293 3.28516L2.45703 7.41602C2.28125 7.5918 2.06641 7.67969 1.8125 7.67969C1.53906 7.67969 1.31445 7.5918 1.13867 7.41602C0.96289 7.2207 0.874999 6.99609 0.874999 6.74219C0.874999 6.48828 0.96289 6.27344 1.13867 6.09766L6.76367 0.326173C6.80273 0.326173 6.85156 0.296876 6.91015 0.238282C6.94922 0.218751 6.98828 0.199219 7.02734 0.179688C7.04687 0.160157 7.07617 0.140626 7.11523 0.121094L7.26172 0.0917975C7.28125 0.0722662 7.33984 0.0625006 7.4375 0.0625006C7.45703 0.0625006 7.49609 0.0722662 7.55469 0.0917974C7.59375 0.0917974 7.66211 0.101563 7.75976 0.121094C7.79883 0.140626 7.82812 0.160157 7.84765 0.179688C7.84765 0.179688 7.86719 0.189454 7.90625 0.208985C7.94531 0.228516 7.97461 0.248047 7.99414 0.267579C7.99414 0.267579 8.01367 0.277344 8.05273 0.296876L8.08203 0.326172L8.11133 0.326172L13.707 6.09766C13.9023 6.27344 14 6.48828 14 6.74219C14 6.99609 13.9023 7.2207 13.707 7.41602ZM8.375 11.3125L6.5 11.3125L6.5 10.375L8.375 10.375L8.375 11.3125ZM8.375 13.1875L6.5 13.1875L6.5 12.25L8.375 12.25L8.375 13.1875ZM6.5 15.0625L6.5 14.125L8.375 14.125L8.375 15.0625L6.5 15.0625Z" fill="#C7E2FF"/>
</svg>
