<svg width="48" height="26" viewBox="0 0 48 26" fill="none" xmlns="http://www.w3.org/2000/svg">
<g style="mix-blend-mode:multiply">
<circle cx="24" cy="13" r="13" fill="#FFC107"/>
</g>
<path d="M5.68093 19.7614V15.8207H5.61861C5.52273 16.0252 5.3869 16.2282 5.21112 16.4295C5.03853 16.6277 4.81321 16.7923 4.53516 16.9233C4.2603 17.0543 3.92472 17.1199 3.52841 17.1199C2.96911 17.1199 2.46254 16.976 2.0087 16.6884C1.55806 16.3975 1.20011 15.9709 0.934837 15.4084C0.672763 14.8427 0.541726 14.1491 0.541726 13.3278C0.541726 12.484 0.677557 11.7825 0.949219 11.2232C1.22088 10.6607 1.58203 10.2404 2.03267 9.96236C2.48651 9.68111 2.98349 9.54048 3.52362 9.54048C3.9359 9.54048 4.27947 9.6108 4.55433 9.75142C4.83239 9.88885 5.05611 10.0614 5.2255 10.2692C5.39808 10.4737 5.52912 10.6751 5.61861 10.8732H5.7049V9.63636H7.7184V19.7614H5.68093ZM4.1756 15.4947C4.50479 15.4947 4.78285 15.4052 5.00977 15.2262C5.23988 15.044 5.41566 14.79 5.53711 14.464C5.66175 14.138 5.72408 13.756 5.72408 13.3182C5.72408 12.8803 5.66335 12.5 5.5419 12.1772C5.42045 11.8544 5.24467 11.6051 5.01456 11.4293C4.78445 11.2536 4.50479 11.1657 4.1756 11.1657C3.84002 11.1657 3.55717 11.2567 3.32706 11.4389C3.09695 11.6211 2.92276 11.8736 2.80451 12.1964C2.68626 12.5192 2.62713 12.8931 2.62713 13.3182C2.62713 13.7464 2.68626 14.1252 2.80451 14.4544C2.92596 14.7804 3.10014 15.036 3.32706 15.2214C3.55717 15.4036 3.84002 15.4947 4.1756 15.4947Z" fill="#2B3B76"/>
<path d="M40.0408 17V7.18182H42.083V10.8732H42.1454C42.2349 10.6751 42.3643 10.4737 42.5337 10.2692C42.7063 10.0614 42.93 9.88885 43.2048 9.75142C43.4829 9.6108 43.8281 9.54048 44.2404 9.54048C44.7773 9.54048 45.2727 9.68111 45.7265 9.96236C46.1803 10.2404 46.5431 10.6607 46.8148 11.2232C47.0864 11.7825 47.2222 12.484 47.2222 13.3278C47.2222 14.1491 47.0896 14.8427 46.8243 15.4084C46.5623 15.9709 46.2043 16.3975 45.7505 16.6884C45.2998 16.976 44.7949 17.1199 44.2356 17.1199C43.8393 17.1199 43.5021 17.0543 43.224 16.9233C42.9492 16.7923 42.7238 16.6277 42.5481 16.4295C42.3723 16.2282 42.238 16.0252 42.1454 15.8207H42.0543V17H40.0408ZM42.0399 13.3182C42.0399 13.756 42.1006 14.138 42.2221 14.464C42.3435 14.79 42.5193 15.044 42.7494 15.2262C42.9795 15.4052 43.2592 15.4947 43.5884 15.4947C43.9208 15.4947 44.202 15.4036 44.4321 15.2214C44.6622 15.036 44.8364 14.7804 44.9547 14.4544C45.0761 14.1252 45.1368 13.7464 45.1368 13.3182C45.1368 12.8931 45.0777 12.5192 44.9595 12.1964C44.8412 11.8736 44.667 11.6211 44.4369 11.4389C44.2068 11.2567 43.9239 11.1657 43.5884 11.1657C43.256 11.1657 42.9747 11.2536 42.7446 11.4293C42.5177 11.6051 42.3435 11.8544 42.2221 12.1772C42.1006 12.5 42.0399 12.8803 42.0399 13.3182Z" fill="#6CBCFC"/>
<path d="M17.2217 17V9.63636H19.1681V10.9355H19.2544C19.4078 10.5041 19.6635 10.1637 20.0214 9.91442C20.3794 9.66513 20.8076 9.54048 21.3062 9.54048C21.8112 9.54048 22.2411 9.66673 22.5958 9.91921C22.9506 10.1685 23.1871 10.5073 23.3053 10.9355H23.382C23.5323 10.5137 23.8039 10.1765 24.197 9.92401C24.5933 9.66832 25.0615 9.54048 25.6017 9.54048C26.2888 9.54048 26.8465 9.75941 27.2748 10.1973C27.7063 10.6319 27.922 11.2488 27.922 12.0478V17H25.8845V12.4505C25.8845 12.0414 25.7759 11.7346 25.5585 11.53C25.3412 11.3255 25.0695 11.2232 24.7435 11.2232C24.3728 11.2232 24.0836 11.3414 23.8758 11.5779C23.6681 11.8113 23.5642 12.1197 23.5642 12.5032V17H21.5843V12.4073C21.5843 12.0462 21.4804 11.7585 21.2727 11.5444C21.0681 11.3303 20.7981 11.2232 20.4625 11.2232C20.2356 11.2232 20.031 11.2807 19.8488 11.3958C19.6699 11.5076 19.5276 11.6658 19.4222 11.8704C19.3167 12.0717 19.264 12.3082 19.264 12.5799V17H17.2217ZM29.6702 17V9.63636H31.7124V17H29.6702ZM30.6961 8.68714C30.3925 8.68714 30.132 8.58647 29.9147 8.38512C29.7005 8.18057 29.5935 7.93608 29.5935 7.65163C29.5935 7.37038 29.7005 7.12908 29.9147 6.92773C30.132 6.72319 30.3925 6.62092 30.6961 6.62092C30.9997 6.62092 31.2586 6.72319 31.4727 6.92773C31.6901 7.12908 31.7987 7.37038 31.7987 7.65163C31.7987 7.93608 31.6901 8.18057 31.4727 8.38512C31.2586 8.58647 30.9997 8.68714 30.6961 8.68714Z" fill="white"/>
</svg>
