<svg width="128" height="26" viewBox="0 0 128 26" fill="none" xmlns="http://www.w3.org/2000/svg">
<g style="mix-blend-mode:multiply">
<circle cx="58" cy="13" r="13" fill="#FFC107"/>
</g>
<path d="M5.68093 19.7614V15.8207H5.61861C5.52273 16.0252 5.3869 16.2282 5.21112 16.4295C5.03853 16.6277 4.81321 16.7923 4.53516 16.9233C4.2603 17.0543 3.92472 17.1199 3.52841 17.1199C2.96911 17.1199 2.46254 16.976 2.0087 16.6884C1.55806 16.3975 1.20011 15.9709 0.934837 15.4084C0.672763 14.8427 0.541726 14.1491 0.541726 13.3278C0.541726 12.484 0.677557 11.7825 0.949219 11.2232C1.22088 10.6607 1.58203 10.2404 2.03267 9.96236C2.48651 9.68111 2.98349 9.54048 3.52362 9.54048C3.9359 9.54048 4.27947 9.6108 4.55433 9.75142C4.83239 9.88885 5.05611 10.0614 5.2255 10.2692C5.39808 10.4737 5.52912 10.6751 5.61861 10.8732H5.7049V9.63636H7.7184V19.7614H5.68093ZM4.1756 15.4947C4.50479 15.4947 4.78285 15.4052 5.00977 15.2262C5.23988 15.044 5.41566 14.79 5.53711 14.464C5.66175 14.138 5.72408 13.756 5.72408 13.3182C5.72408 12.8803 5.66335 12.5 5.5419 12.1772C5.42045 11.8544 5.24467 11.6051 5.01456 11.4293C4.78445 11.2536 4.50479 11.1657 4.1756 11.1657C3.84002 11.1657 3.55717 11.2567 3.32706 11.4389C3.09695 11.6211 2.92276 11.8736 2.80451 12.1964C2.68626 12.5192 2.62713 12.8931 2.62713 13.3182C2.62713 13.7464 2.68626 14.1252 2.80451 14.4544C2.92596 14.7804 3.10014 15.036 3.32706 15.2214C3.55717 15.4036 3.84002 15.4947 4.1756 15.4947ZM14.0801 13.8647V9.63636H16.1223V17H14.1616V15.6625H14.0849C13.9187 16.0939 13.6422 16.4407 13.2555 16.7028C12.872 16.9648 12.4038 17.0959 11.8509 17.0959C11.3587 17.0959 10.9256 16.984 10.5517 16.7603C10.1777 16.5366 9.8853 16.2186 9.67436 15.8063C9.46662 15.394 9.36115 14.9002 9.35795 14.3249V9.63636H11.4002V13.9606C11.4034 14.3952 11.5201 14.7388 11.7502 14.9913C11.9803 15.2438 12.2887 15.37 12.6754 15.37C12.9215 15.37 13.1516 15.3141 13.3658 15.2022C13.5799 15.0872 13.7525 14.9178 13.8835 14.6941C14.0178 14.4703 14.0833 14.1939 14.0801 13.8647ZM17.7559 17V9.63636H19.7982V17H17.7559ZM18.7818 8.68714C18.4782 8.68714 18.2177 8.58647 18.0004 8.38512C17.7863 8.18057 17.6792 7.93608 17.6792 7.65163C17.6792 7.37038 17.7863 7.12908 18.0004 6.92773C18.2177 6.72319 18.4782 6.62092 18.7818 6.62092C19.0854 6.62092 19.3443 6.72319 19.5585 6.92773C19.7758 7.12908 19.8845 7.37038 19.8845 7.65163C19.8845 7.93608 19.7758 8.18057 19.5585 8.38512C19.3443 8.58647 19.0854 8.68714 18.7818 8.68714ZM24.79 17.1438C24.0325 17.1438 23.3805 16.9904 22.834 16.6836C22.2907 16.3736 21.872 15.9357 21.5779 15.37C21.2839 14.8011 21.1369 14.1284 21.1369 13.3517C21.1369 12.5943 21.2839 11.9295 21.5779 11.3574C21.872 10.7853 22.2859 10.3395 22.8196 10.0199C23.3565 9.70028 23.9862 9.54048 24.7085 9.54048C25.1942 9.54048 25.6465 9.61879 26.0652 9.77539C26.487 9.9288 26.8546 10.1605 27.1678 10.4705C27.4842 10.7805 27.7303 11.1705 27.9061 11.6403C28.0819 12.1069 28.1697 12.6534 28.1697 13.2798V13.8407H21.9519V12.5751H26.2473C26.2473 12.2811 26.1834 12.0206 26.0556 11.7937C25.9277 11.5668 25.7504 11.3894 25.5234 11.2615C25.2997 11.1305 25.0392 11.065 24.742 11.065C24.432 11.065 24.1571 11.1369 23.9174 11.2807C23.6809 11.4213 23.4956 11.6115 23.3613 11.8512C23.2271 12.0877 23.1584 12.3514 23.1552 12.6422V13.8455C23.1552 14.2099 23.2223 14.5247 23.3565 14.79C23.494 15.0552 23.6873 15.2598 23.9366 15.4036C24.1859 15.5474 24.4815 15.6193 24.8235 15.6193C25.0504 15.6193 25.2582 15.5874 25.4467 15.5234C25.6353 15.4595 25.7967 15.3636 25.9309 15.2358C26.0652 15.108 26.1674 14.9513 26.2377 14.766L28.1266 14.8906C28.0307 15.3445 27.8342 15.7408 27.5369 16.0795C27.2429 16.4151 26.8626 16.6772 26.396 16.8658C25.9325 17.0511 25.3972 17.1438 24.79 17.1438ZM29.5025 17V9.63636H31.4824V10.9212H31.5591C31.6934 10.4641 31.9187 10.119 32.2351 9.88565C32.5515 9.64915 32.9158 9.53089 33.3281 9.53089C33.4304 9.53089 33.5407 9.53729 33.6589 9.55007C33.7772 9.56286 33.881 9.58043 33.9705 9.6028V11.415C33.8746 11.3862 33.742 11.3606 33.5726 11.3382C33.4032 11.3159 33.2482 11.3047 33.1076 11.3047C32.8072 11.3047 32.5387 11.3702 32.3022 11.5012C32.0689 11.6291 31.8835 11.8081 31.7461 12.0382C31.6119 12.2683 31.5447 12.5336 31.5447 12.834V17H29.5025ZM38.0107 17.1438C37.266 17.1438 36.622 16.9856 36.0787 16.6692C35.5386 16.3496 35.1215 15.9054 34.8275 15.3365C34.5334 14.7644 34.3864 14.1012 34.3864 13.3469C34.3864 12.5863 34.5334 11.9215 34.8275 11.3526C35.1215 10.7805 35.5386 10.3363 36.0787 10.0199C36.622 9.70028 37.266 9.54048 38.0107 9.54048C38.7554 9.54048 39.3978 9.70028 39.9379 10.0199C40.4812 10.3363 40.8999 10.7805 41.1939 11.3526C41.488 11.9215 41.635 12.5863 41.635 13.3469C41.635 14.1012 41.488 14.7644 41.1939 15.3365C40.8999 15.9054 40.4812 16.3496 39.9379 16.6692C39.3978 16.9856 38.7554 17.1438 38.0107 17.1438ZM38.0203 15.5618C38.3591 15.5618 38.6419 15.4659 38.8688 15.2741C39.0957 15.0792 39.2667 14.8139 39.3818 14.4783C39.5 14.1428 39.5592 13.7608 39.5592 13.3326C39.5592 12.9043 39.5 12.5224 39.3818 12.1868C39.2667 11.8512 39.0957 11.5859 38.8688 11.391C38.6419 11.196 38.3591 11.0985 38.0203 11.0985C37.6783 11.0985 37.3907 11.196 37.1574 11.391C36.9272 11.5859 36.7531 11.8512 36.6348 12.1868C36.5198 12.5224 36.4622 12.9043 36.4622 13.3326C36.4622 13.7608 36.5198 14.1428 36.6348 14.4783C36.7531 14.8139 36.9272 15.0792 37.1574 15.2741C37.3907 15.4659 37.6783 15.5618 38.0203 15.5618Z" fill="#2B3B76"/>
<path d="M74.4558 17V7.18182H76.498V10.8732H76.5603C76.6498 10.6751 76.7793 10.4737 76.9487 10.2692C77.1212 10.0614 77.345 9.88885 77.6198 9.75142C77.8979 9.6108 78.243 9.54048 78.6553 9.54048C79.1923 9.54048 79.6877 9.68111 80.1415 9.96236C80.5953 10.2404 80.9581 10.6607 81.2297 11.2232C81.5014 11.7825 81.6372 12.484 81.6372 13.3278C81.6372 14.1491 81.5046 14.8427 81.2393 15.4084C80.9772 15.9709 80.6193 16.3975 80.1655 16.6884C79.7148 16.976 79.2098 17.1199 78.6505 17.1199C78.2542 17.1199 77.9171 17.0543 77.639 16.9233C77.3641 16.7923 77.1388 16.6277 76.963 16.4295C76.7873 16.2282 76.653 16.0252 76.5603 15.8207H76.4693V17H74.4558ZM76.4549 13.3182C76.4549 13.756 76.5156 14.138 76.637 14.464C76.7585 14.79 76.9343 15.044 77.1644 15.2262C77.3945 15.4052 77.6742 15.4947 78.0033 15.4947C78.3357 15.4947 78.617 15.4036 78.8471 15.2214C79.0772 15.036 79.2514 14.7804 79.3696 14.4544C79.4911 14.1252 79.5518 13.7464 79.5518 13.3182C79.5518 12.8931 79.4927 12.5192 79.3744 12.1964C79.2562 11.8736 79.082 11.6211 78.8519 11.4389C78.6218 11.2567 78.3389 11.1657 78.0033 11.1657C77.671 11.1657 77.3897 11.2536 77.1596 11.4293C76.9327 11.6051 76.7585 11.8544 76.637 12.1772C76.5156 12.5 76.4549 12.8803 76.4549 13.3182ZM85.0997 17.139C84.6299 17.139 84.2112 17.0575 83.8437 16.8945C83.4761 16.7283 83.1853 16.4838 82.9712 16.161C82.7602 15.835 82.6548 15.4292 82.6548 14.9434C82.6548 14.5343 82.7299 14.1907 82.8801 13.9126C83.0303 13.6346 83.2348 13.4109 83.4937 13.2415C83.7526 13.0721 84.0466 12.9442 84.3758 12.858C84.7082 12.7717 85.0566 12.7109 85.4209 12.6758C85.8492 12.631 86.1944 12.5895 86.4564 12.5511C86.7185 12.5096 86.9087 12.4489 87.0269 12.369C87.1452 12.2891 87.2043 12.1708 87.2043 12.0142V11.9854C87.2043 11.6818 87.1084 11.4469 86.9167 11.2807C86.7281 11.1145 86.4596 11.0314 86.1113 11.0314C85.7437 11.0314 85.4513 11.1129 85.2339 11.2759C85.0166 11.4357 84.8728 11.6371 84.8025 11.88L82.9136 11.7266C83.0095 11.2791 83.1981 10.8924 83.4793 10.5664C83.7606 10.2372 84.1233 9.98473 84.5676 9.80895C85.015 9.62997 85.5328 9.54048 86.1208 9.54048C86.5299 9.54048 86.9214 9.58842 87.2954 9.6843C87.6725 9.78018 88.0065 9.9288 88.2973 10.1301C88.5914 10.3315 88.8231 10.5904 88.9925 10.9068C89.1619 11.22 89.2466 11.5955 89.2466 12.0334V17H87.3098V15.9789H87.2522C87.134 16.209 86.9758 16.4119 86.7776 16.5877C86.5795 16.7603 86.3414 16.8961 86.0633 16.9952C85.7853 17.0911 85.4641 17.139 85.0997 17.139ZM85.6846 15.7296C85.985 15.7296 86.2503 15.6705 86.4804 15.5522C86.7105 15.4308 86.8911 15.2678 87.0221 15.0632C87.1532 14.8587 87.2187 14.627 87.2187 14.3681V13.5866C87.1548 13.6282 87.0669 13.6665 86.955 13.7017C86.8463 13.7337 86.7233 13.764 86.5859 13.7928C86.4484 13.8184 86.311 13.8423 86.1736 13.8647C86.0362 13.8839 85.9115 13.9015 85.7996 13.9174C85.5599 13.9526 85.3506 14.0085 85.1716 14.0852C84.9927 14.1619 84.8536 14.2658 84.7545 14.3968C84.6555 14.5247 84.6059 14.6845 84.6059 14.8762C84.6059 15.1543 84.7066 15.3668 84.908 15.5138C85.1125 15.6577 85.3714 15.7296 85.6846 15.7296ZM92.8732 12.7429V17H90.831V9.63636H92.7774V10.9355H92.8637C93.0267 10.5073 93.2999 10.1685 93.6834 9.91921C94.067 9.66673 94.532 9.54048 95.0785 9.54048C95.5899 9.54048 96.0357 9.65234 96.416 9.87607C96.7964 10.0998 97.092 10.4194 97.3029 10.8349C97.5139 11.2472 97.6193 11.7393 97.6193 12.3114V17H95.5771V12.6758C95.5803 12.2251 95.4652 11.8736 95.2319 11.6211C94.9986 11.3654 94.6774 11.2376 94.2683 11.2376C93.9934 11.2376 93.7506 11.2967 93.5396 11.415C93.3319 11.5332 93.1689 11.7058 93.0506 11.9327C92.9356 12.1564 92.8764 12.4265 92.8732 12.7429ZM101.942 17.1199C101.383 17.1199 100.876 16.976 100.423 16.6884C99.972 16.3975 99.6141 15.9709 99.3488 15.4084C99.0867 14.8427 98.9557 14.1491 98.9557 13.3278C98.9557 12.484 99.0915 11.7825 99.3632 11.2232C99.6348 10.6607 99.996 10.2404 100.447 9.96236C100.9 9.68111 101.397 9.54048 101.938 9.54048C102.35 9.54048 102.693 9.6108 102.968 9.75142C103.246 9.88885 103.47 10.0614 103.639 10.2692C103.812 10.4737 103.943 10.6751 104.033 10.8732H104.095V7.18182H106.132V17H104.119V15.8207H104.033C103.937 16.0252 103.801 16.2282 103.625 16.4295C103.452 16.6277 103.227 16.7923 102.949 16.9233C102.674 17.0543 102.339 17.1199 101.942 17.1199ZM102.59 15.4947C102.919 15.4947 103.197 15.4052 103.424 15.2262C103.654 15.044 103.83 14.79 103.951 14.464C104.076 14.138 104.138 13.756 104.138 13.3182C104.138 12.8803 104.077 12.5 103.956 12.1772C103.834 11.8544 103.659 11.6051 103.429 11.4293C103.198 11.2536 102.919 11.1657 102.59 11.1657C102.254 11.1657 101.971 11.2567 101.741 11.4389C101.511 11.6211 101.337 11.8736 101.218 12.1964C101.1 12.5192 101.041 12.8931 101.041 13.3182C101.041 13.7464 101.1 14.1252 101.218 14.4544C101.34 14.7804 101.514 15.036 101.741 15.2214C101.971 15.4036 102.254 15.4947 102.59 15.4947ZM111.167 17.1438C110.41 17.1438 109.758 16.9904 109.211 16.6836C108.668 16.3736 108.249 15.9357 107.955 15.37C107.661 14.8011 107.514 14.1284 107.514 13.3517C107.514 12.5943 107.661 11.9295 107.955 11.3574C108.249 10.7853 108.663 10.3395 109.197 10.0199C109.734 9.70028 110.363 9.54048 111.086 9.54048C111.572 9.54048 112.024 9.61879 112.442 9.77539C112.864 9.9288 113.232 10.1605 113.545 10.4705C113.862 10.7805 114.108 11.1705 114.283 11.6403C114.459 12.1069 114.547 12.6534 114.547 13.2798V13.8407H108.329V12.5751H112.625C112.625 12.2811 112.561 12.0206 112.433 11.7937C112.305 11.5668 112.128 11.3894 111.901 11.2615C111.677 11.1305 111.417 11.065 111.119 11.065C110.809 11.065 110.534 11.1369 110.295 11.2807C110.058 11.4213 109.873 11.6115 109.739 11.8512C109.604 12.0877 109.536 12.3514 109.533 12.6422V13.8455C109.533 14.2099 109.6 14.5247 109.734 14.79C109.871 15.0552 110.065 15.2598 110.314 15.4036C110.563 15.5474 110.859 15.6193 111.201 15.6193C111.428 15.6193 111.635 15.5874 111.824 15.5234C112.013 15.4595 112.174 15.3636 112.308 15.2358C112.442 15.108 112.545 14.9513 112.615 14.766L114.504 14.8906C114.408 15.3445 114.211 15.7408 113.914 16.0795C113.62 16.4151 113.24 16.6772 112.773 16.8658C112.31 17.0511 111.775 17.1438 111.167 17.1438ZM115.88 17V9.63636H117.86V10.9212H117.936C118.071 10.4641 118.296 10.119 118.612 9.88565C118.929 9.64915 119.293 9.53089 119.705 9.53089C119.808 9.53089 119.918 9.53729 120.036 9.55007C120.154 9.56286 120.258 9.58043 120.348 9.6028V11.415C120.252 11.3862 120.119 11.3606 119.95 11.3382C119.781 11.3159 119.626 11.3047 119.485 11.3047C119.185 11.3047 118.916 11.3702 118.68 11.5012C118.446 11.6291 118.261 11.8081 118.123 12.0382C117.989 12.2683 117.922 12.5336 117.922 12.834V17H115.88ZM123.293 17.139C122.823 17.139 122.404 17.0575 122.037 16.8945C121.669 16.7283 121.378 16.4838 121.164 16.161C120.953 15.835 120.848 15.4292 120.848 14.9434C120.848 14.5343 120.923 14.1907 121.073 13.9126C121.223 13.6346 121.428 13.4109 121.687 13.2415C121.945 13.0721 122.239 12.9442 122.569 12.858C122.901 12.7717 123.249 12.7109 123.614 12.6758C124.042 12.631 124.387 12.5895 124.649 12.5511C124.911 12.5096 125.102 12.4489 125.22 12.369C125.338 12.2891 125.397 12.1708 125.397 12.0142V11.9854C125.397 11.6818 125.301 11.4469 125.11 11.2807C124.921 11.1145 124.652 11.0314 124.304 11.0314C123.937 11.0314 123.644 11.1129 123.427 11.2759C123.209 11.4357 123.066 11.6371 122.995 11.88L121.107 11.7266C121.202 11.2791 121.391 10.8924 121.672 10.5664C121.953 10.2372 122.316 9.98473 122.76 9.80895C123.208 9.62997 123.726 9.54048 124.314 9.54048C124.723 9.54048 125.114 9.58842 125.488 9.6843C125.865 9.78018 126.199 9.9288 126.49 10.1301C126.784 10.3315 127.016 10.5904 127.185 10.9068C127.355 11.22 127.439 11.5955 127.439 12.0334V17H125.503V15.9789H125.445C125.327 16.209 125.169 16.4119 124.971 16.5877C124.772 16.7603 124.534 16.8961 124.256 16.9952C123.978 17.0911 123.657 17.139 123.293 17.139ZM123.877 15.7296C124.178 15.7296 124.443 15.6705 124.673 15.5522C124.903 15.4308 125.084 15.2678 125.215 15.0632C125.346 14.8587 125.412 14.627 125.412 14.3681V13.5866C125.348 13.6282 125.26 13.6665 125.148 13.7017C125.039 13.7337 124.916 13.764 124.779 13.7928C124.641 13.8184 124.504 13.8423 124.366 13.8647C124.229 13.8839 124.104 13.9015 123.993 13.9174C123.753 13.9526 123.543 14.0085 123.364 14.0852C123.186 14.1619 123.046 14.2658 122.947 14.3968C122.848 14.5247 122.799 14.6845 122.799 14.8762C122.799 15.1543 122.899 15.3668 123.101 15.5138C123.305 15.6577 123.564 15.7296 123.877 15.7296Z" fill="#6CBCFC"/>
<path d="M51.0967 17V9.63636H53.0431V10.9355H53.1294C53.2828 10.5041 53.5384 10.1637 53.8964 9.91442C54.2544 9.66513 54.6826 9.54048 55.1812 9.54048C55.6862 9.54048 56.116 9.66673 56.4708 9.91921C56.8256 10.1685 57.0621 10.5073 57.1803 10.9355H57.257C57.4072 10.5137 57.6789 10.1765 58.072 9.92401C58.4683 9.66832 58.9365 9.54048 59.4767 9.54048C60.1638 9.54048 60.7215 9.75941 61.1498 10.1973C61.5812 10.6319 61.797 11.2488 61.797 12.0478V17H59.7595V12.4505C59.7595 12.0414 59.6508 11.7346 59.4335 11.53C59.2162 11.3255 58.9445 11.2232 58.6185 11.2232C58.2478 11.2232 57.9585 11.3414 57.7508 11.5779C57.5431 11.8113 57.4392 12.1197 57.4392 12.5032V17H55.4593V12.4073C55.4593 12.0462 55.3554 11.7585 55.1476 11.5444C54.9431 11.3303 54.673 11.2232 54.3375 11.2232C54.1105 11.2232 53.906 11.2807 53.7238 11.3958C53.5448 11.5076 53.4026 11.6658 53.2971 11.8704C53.1917 12.0717 53.1389 12.3082 53.1389 12.5799V17H51.0967ZM63.6802 17V9.63636H65.7224V17H63.6802ZM64.7061 8.68714C64.4025 8.68714 64.142 8.58647 63.9247 8.38512C63.7105 8.18057 63.6035 7.93608 63.6035 7.65163C63.6035 7.37038 63.7105 7.12908 63.9247 6.92773C64.142 6.72319 64.4025 6.62092 64.7061 6.62092C65.0097 6.62092 65.2686 6.72319 65.4827 6.92773C65.7 7.12908 65.8087 7.37038 65.8087 7.65163C65.8087 7.93608 65.7 8.18057 65.4827 8.38512C65.2686 8.58647 65.0097 8.68714 64.7061 8.68714Z" fill="white"/>
</svg>
