<?xml version="1.0" encoding="utf-8"?>
<!-- Generator: Adobe Illustrator 22.0.1, SVG Export Plug-In . SVG Version: 6.00 Build 0)  -->
<svg version="1.1" id="Layer_1" xmlns="http://www.w3.org/2000/svg" xmlns:xlink="http://www.w3.org/1999/xlink" x="0px" y="0px"
	 viewBox="0 0 32.7 32.7" style="enable-background:new 0 0 32.7 32.7;" xml:space="preserve">
<style type="text/css">
	.st0{fill:#FFFFFF;}
</style>
<g>
	<path class="st0" d="M19.7,24.7c-0.4-0.1-0.4-0.8-0.4-1V21c0-0.9-0.3-1.5-0.7-1.9c2.2-0.2,4.6-1.1,4.6-4.9c0-1.1-0.4-2-1-2.7
		c0.1-0.2,0.4-1.3-0.1-2.6c0,0-0.8-0.3-2.8,1c-0.8-0.2-1.6-0.3-2.5-0.3c-0.8,0-1.7,0.1-2.5,0.3c-1.9-1.3-2.8-1-2.8-1
		c-0.5,1.4-0.2,2.4-0.1,2.6c-0.6,0.7-1,1.6-1,2.7c0,3.9,2.3,4.7,4.6,5c-0.3,0.2-0.5,0.7-0.6,1.3c-0.6,0.3-2,0.7-2.9-0.8
		c0,0-0.5-1-1.5-1c0,0-1,0-0.1,0.6c0,0,0.7,0.3,1.1,1.5c0,0,0.6,1.9,3.4,1.3v1.7c0,0.2,0,0.9-0.4,1h5.7V24.7z"/>
	<path class="st0" d="M16.3,32.7C7.3,32.7,0,25.3,0,16.3S7.3,0,16.3,0s16.3,7.3,16.3,16.3C32.7,25.3,25.3,32.7,16.3,32.7z M16.3,2.3
		c-7.7,0-14,6.3-14,14c0,7.8,6.3,14.1,14.1,14.1s14.1-6.3,14.1-14.1C30.4,8.6,24.1,2.3,16.3,2.3z"/>
</g>
</svg>
