<?xml version="1.0" encoding="utf-8"?>
<!-- Generator: Adobe Illustrator 22.0.1, SVG Export Plug-In . SVG Version: 6.00 Build 0)  -->
<svg version="1.1" id="Layer_1" xmlns="http://www.w3.org/2000/svg" xmlns:xlink="http://www.w3.org/1999/xlink" x="0px" y="0px"
	 viewBox="0 0 32.7 32.7" enable-background="new 0 0 32.7 32.7" xml:space="preserve">
<g>
	<g>
		<path fill="#0098ED" d="M22.6,13.5c0.6-0.5,1.3-1.1,1.6-1.7c-0.5,0.3-1.1,0.4-1.8,0.5c0.6-0.4,1.1-1,1.4-1.8
			c-0.6,0.3-1.3,0.6-2.1,0.8c-1.9-2.3-6.4-0.4-5.6,3c-3.2-0.2-5.1-1.6-6.7-3.4c-0.9,1.5-0.1,3.8,1,4.4c-0.6,0-1-0.2-1.4-0.4
			c0,1.9,1.1,2.8,2.5,3.3c-0.4,0.1-0.9,0.1-1.4,0c0.5,1.3,1.4,2.1,3,2.3c-1.1,0.9-3.1,1.6-4.8,1.3c1.4,0.9,3,1.6,5.2,1.5
			C18.9,23,22.5,19.2,22.6,13.5z"/>
		<path fill="#0098ED" d="M16.3,32.7C7.3,32.7,0,25.3,0,16.3C0,7.3,7.3,0,16.3,0c9,0,16.3,7.3,16.3,16.3
			C32.7,25.3,25.3,32.7,16.3,32.7z M16.3,2.3C8.6,2.3,2.3,8.6,2.3,16.3c0,7.8,6.3,14.1,14.1,14.1c7.8,0,14.1-6.3,14.1-14.1
			C30.4,8.6,24.1,2.3,16.3,2.3z"/>
	</g>
</g>
</svg>
