<?xml version="1.0" encoding="utf-8"?>
<!-- Generator: Adobe Illustrator 22.0.1, SVG Export Plug-In . SVG Version: 6.00 Build 0)  -->
<svg version="1.1" id="Layer_1" xmlns="http://www.w3.org/2000/svg" xmlns:xlink="http://www.w3.org/1999/xlink" x="0px" y="0px"
	 viewBox="0 0 32.7 32.7" enable-background="new 0 0 32.7 32.7" xml:space="preserve">
<g>
	<path fill="#4176FA" d="M16.3,32.7C7.3,32.7,0,25.3,0,16.3C0,7.3,7.3,0,16.3,0c9,0,16.3,7.3,16.3,16.3
		C32.7,25.3,25.3,32.7,16.3,32.7z M16.3,2.3C8.6,2.3,2.3,8.6,2.3,16.3c0,7.8,6.3,14.1,14.1,14.1c7.8,0,14.1-6.3,14.1-14.1
		C30.4,8.6,24.1,2.3,16.3,2.3z"/>
	<g>
		<g>
			<path fill="#4176FA" d="M22,13.4c-4.5,0-4.5,4.4-4.5,4.5c0,0-0.3,4.4,4.5,4.4c0,0,4,0.2,4-3.1h-2c0,0,0.1,1.2-1.9,1.2
				c0,0-2,0.1-2-2h6C26,18.4,26.7,13.4,22,13.4z M20,16.8c0,0,0.2-1.8,2-1.8c1.8,0,1.8,1.8,1.8,1.8H20z M14.9,15.7
				c0,0,1.8-0.1,1.8-2.2c0-2.1-1.4-3.1-3.3-3.1h-6V22h6c0,0,3.7,0.1,3.7-3.4C17.1,18.6,17.2,15.7,14.9,15.7z M10,12.5h3.4
				c0,0,0.8,0,0.8,1.2c0,1.2-0.5,1.4-1,1.4H10V12.5z M13.2,20H10v-3.1h3.4c0,0,1.2,0,1.2,1.6C14.6,19.8,13.7,19.9,13.2,20z
				 M19.5,11.1v1.4h4.8v-1.4H19.5z"/>
		</g>
	</g>
</g>
</svg>
