<?xml version="1.0" encoding="utf-8"?>
<!-- Generator: Adobe Illustrator 22.0.1, SVG Export Plug-In . SVG Version: 6.00 Build 0)  -->
<svg version="1.1" id="Layer_1" xmlns="http://www.w3.org/2000/svg" xmlns:xlink="http://www.w3.org/1999/xlink" x="0px" y="0px"
	 viewBox="0 0 32.7 32.7" enable-background="new 0 0 32.7 32.7" xml:space="preserve">
<g>
	<path fill="#606060" d="M16.3,32.7C7.3,32.7,0,25.3,0,16.3C0,7.3,7.3,0,16.3,0c9,0,16.3,7.3,16.3,16.3
		C32.7,25.3,25.3,32.7,16.3,32.7z M16.3,2.3C8.6,2.3,2.3,8.6,2.3,16.3c0,7.8,6.3,14.1,14.1,14.1c7.8,0,14.1-6.3,14.1-14.1
		C30.4,8.6,24.1,2.3,16.3,2.3z"/>
	<path fill="#606060" d="M22.9,13.2l-6.2,3.9l-6.2-3.9v-1.6l6.2,3.9l6.2-3.9V13.2z M22.9,10.1H10.5c-0.9,0-1.6,0.7-1.6,1.6V21
		c0,0.9,0.7,1.6,1.6,1.6h12.4c0.9,0,1.6-0.7,1.6-1.6v-9.3C24.5,10.8,23.8,10.1,22.9,10.1z"/>
</g>
</svg>
