<?xml version="1.0" encoding="utf-8"?>
<!-- Generator: Adobe Illustrator 22.0.1, SVG Export Plug-In . SVG Version: 6.00 Build 0)  -->
<svg version="1.1" id="Layer_1" xmlns="http://www.w3.org/2000/svg" xmlns:xlink="http://www.w3.org/1999/xlink" x="0px" y="0px"
	 viewBox="0 0 32.7 32.7" enable-background="new 0 0 32.7 32.7" xml:space="preserve">
<g>
	<path id="WhatsApp" fill="#25D366" d="M32.7,15.9c0,8.8-7.2,15.9-16.1,15.9c-2.8,0-5.5-0.7-7.8-2L0,32.7l2.9-8.5
		c-1.5-2.4-2.3-5.2-2.3-8.2C0.6,7.1,7.8,0,16.6,0C25.5,0,32.7,7.1,32.7,15.9z M16.6,2.5c-7.4,0-13.5,6-13.5,13.4
		c0,2.9,1,5.6,2.6,7.9l-1.7,5l5.2-1.6c2.1,1.4,4.7,2.2,7.4,2.2c7.4,0,13.5-6,13.5-13.4C30.1,8.5,24.1,2.5,16.6,2.5z M24.8,19.6
		c-0.1-0.2-0.4-0.3-0.8-0.5c-0.4-0.2-2.3-1.1-2.7-1.3c-0.4-0.1-0.6-0.2-0.9,0.2c-0.3,0.4-1,1.3-1.2,1.5c-0.2,0.3-0.5,0.3-0.9,0.1
		c-0.4-0.2-1.7-0.6-3.2-1.9c-1.2-1-2-2.3-2.2-2.7c-0.2-0.4,0-0.6,0.2-0.8c0.2-0.2,0.4-0.5,0.6-0.7c0.2-0.2,0.3-0.4,0.4-0.7
		c0.1-0.3,0.1-0.5,0-0.7c-0.1-0.2-0.9-2.1-1.2-2.9c-0.3-0.8-0.7-0.7-0.9-0.7c-0.2,0-0.5,0-0.8,0c-0.3,0-0.7,0.1-1,0.5
		c-0.4,0.4-1.4,1.3-1.4,3.3c0,1.9,1.4,3.8,1.6,4c0.2,0.3,2.7,4.3,6.7,5.9c4,1.6,4,1,4.7,1c0.7-0.1,2.3-0.9,2.7-1.9
		C24.9,20.5,24.9,19.8,24.8,19.6z"/>
</g>
</svg>
