<?xml version="1.0" encoding="utf-8"?>
<!-- Generator: Adobe Illustrator 22.0.1, SVG Export Plug-In . SVG Version: 6.00 Build 0)  -->
<svg version="1.1" id="Layer_1" xmlns="http://www.w3.org/2000/svg" xmlns:xlink="http://www.w3.org/1999/xlink" x="0px" y="0px"
	 viewBox="0 0 32.7 32.7" enable-background="new 0 0 32.7 32.7" xml:space="preserve">
<g>
	<path fill="#007AB9" d="M16.3,32.7C7.3,32.7,0,25.3,0,16.3C0,7.3,7.3,0,16.3,0c9,0,16.3,7.3,16.3,16.3
		C32.7,25.3,25.3,32.7,16.3,32.7z M16.3,2.3C8.6,2.3,2.3,8.6,2.3,16.3c0,7.8,6.3,14.1,14.1,14.1c7.8,0,14.1-6.3,14.1-14.1
		C30.4,8.6,24.1,2.3,16.3,2.3z"/>
	<g>
		<rect x="10.8" y="13.2" fill="#007AB9" width="2.8" height="8.5"/>
		<path fill="#007AB9" d="M12.2,12L12.2,12c-1,0-1.6-0.7-1.6-1.5c0-0.8,0.6-1.5,1.6-1.5s1.6,0.6,1.6,1.5C13.8,11.4,13.2,12,12.2,12z
			"/>
		<path fill="#007AB9" d="M23.8,21.7H21v-4.6c0-1.1-0.4-1.9-1.4-1.9c-0.8,0-1.3,0.5-1.5,1C18,16.5,18,16.7,18,17v4.8h-2.8
			c0,0,0-7.7,0-8.5H18v1.2c0.4-0.6,1.1-1.4,2.6-1.4c1.9,0,3.3,1.2,3.3,3.8V21.7z"/>
	</g>
</g>
</svg>
