<?xml version="1.0" encoding="utf-8"?>
<!-- Generator: Adobe Illustrator 22.0.1, SVG Export Plug-In . SVG Version: 6.00 Build 0)  -->
<svg version="1.1" id="Layer_1" xmlns="http://www.w3.org/2000/svg" xmlns:xlink="http://www.w3.org/1999/xlink" x="0px" y="0px"
	 viewBox="0 0 55.4 55.1" enable-background="new 0 0 55.4 55.1" xml:space="preserve">
<g>
	<defs>
		
			<ellipse id="SVGID_1_" transform="matrix(0.9239 -0.3827 0.3827 0.9239 -8.4455 12.712)" cx="27.7" cy="27.6" rx="27.5" ry="27.5"/>
	</defs>
	<clipPath id="SVGID_2_">
		<use xlink:href="#SVGID_1_"  overflow="visible"/>
	</clipPath>
	<g clip-path="url(#SVGID_2_)">
		<rect x="-3.2" y="23.7" fill="#CB0053" width="19.3" height="7.7"/>
		<rect x="23.9" y="39.2" fill="#CB0053" width="7.7" height="19.3"/>
		<rect x="23.9" y="-3.3" fill="#CB0053" width="7.7" height="19.3"/>
		<rect x="39.3" y="23.7" fill="#CB0053" width="19.3" height="7.7"/>
		<g>
			<polygon fill="#CB0053" points="33.5,-16.8 21.9,-16.8 10.3,-16.8 10.3,6.3 21,6.3 21,-3.3 21,-6.2 23.9,-6.2 31.6,-6.2 
				34.5,-6.2 34.5,-3.3 34.5,6.3 45.1,6.3 45.1,-16.8 			"/>
		</g>
		<g>
			<polygon fill="#CB0053" points="34.5,48.8 34.5,58.5 34.5,61.4 31.6,61.4 23.9,61.4 21,61.4 21,58.5 21,48.8 10.3,48.8 10.3,72 
				21.9,72 33.5,72 45.1,72 45.1,48.8 			"/>
		</g>
		<g>
			<polygon fill="#CB0053" points="-3.2,34.3 -6.1,34.3 -6.1,31.4 -6.1,23.7 -6.1,20.8 -3.2,20.8 6.5,20.8 6.5,10.2 -16.7,10.2 
				-16.7,21.8 -16.7,33.4 -16.7,45 6.5,45 6.5,34.3 			"/>
		</g>
		<g>
			<polygon fill="#CB0053" points="49,10.2 49,20.8 58.6,20.8 61.5,20.8 61.5,23.7 61.5,31.4 61.5,34.3 58.6,34.3 49,34.3 49,45 
				72.1,45 72.1,33.4 72.1,21.8 72.1,10.2 			"/>
		</g>
		<g>
			<polygon fill="#CB0053" points="21,39.7 15.7,39.7 15.7,34.3 10.3,34.3 10.3,45 21,45 			"/>
			<polygon fill="#CB0053" points="34.5,15.5 39.8,15.5 39.8,20.8 45.1,20.8 45.1,10.2 34.5,10.2 			"/>
			<polygon fill="#CB0053" points="15.7,20.8 15.7,15.5 21,15.5 21,10.2 10.3,10.2 10.3,20.8 			"/>
			<polygon fill="#CB0053" points="39.8,34.3 39.8,39.7 34.5,39.7 34.5,45 45.1,45 45.1,34.3 			"/>
		</g>
	</g>
</g>
</svg>
