<?xml version="1.0" encoding="utf-8"?>
<!-- Generator: Adobe Illustrator 22.0.1, SVG Export Plug-In . SVG Version: 6.00 Build 0)  -->
<svg version="1.1" id="Layer_1" xmlns="http://www.w3.org/2000/svg" xmlns:xlink="http://www.w3.org/1999/xlink" x="0px" y="0px"
	 viewBox="0 0 301.5 110.4" enable-background="new 0 0 301.5 110.4" xml:space="preserve">
<g>
	<g>
		<g>
			<path fill="#1E70B5" d="M0,70.6h2.6v8H12v-8h2.6v18.2H12v-8H2.6v8H0V70.6z"/>
			<path fill="#1E70B5" d="M23.8,75.4c3.9,0,7,2.9,7,6.8c0,4-3.1,6.9-7,6.9c-3.9,0-7-2.9-7-6.9C16.7,78.3,19.9,75.4,23.8,75.4z
				 M23.8,86.9c2.5,0,4.5-2,4.5-4.7c0-2.7-2-4.6-4.5-4.6c-2.5,0-4.5,1.9-4.5,4.6C19.3,85,21.3,86.9,23.8,86.9z"/>
			<path fill="#1E70B5" d="M32.7,85.4c0,0,1.5,1.5,3.7,1.5c1.1,0,2.2-0.6,2.2-1.6c0-2.4-6.7-1.9-6.7-6.2c0-2.4,2.1-3.7,4.7-3.7
				c2.9,0,4.2,1.4,4.2,1.4l-1,1.9c0,0-1.2-1.2-3.2-1.2c-1.1,0-2.1,0.5-2.1,1.6c0,2.3,6.7,1.8,6.7,6.1c0,2.2-1.9,3.8-4.7,3.8
				c-3.2,0-5-1.9-5-1.9L32.7,85.4z"/>
			<path fill="#1E70B5" d="M42.8,75.7h2.3v1.1c0,0.5-0.1,1-0.1,1h0.1c0,0,1.1-2.4,4.4-2.4c3.5,0,5.7,2.8,5.7,6.8
				c0,4.2-2.5,6.8-5.9,6.8c-2.9,0-4-2.1-4-2.1h-0.1c0,0,0.1,0.5,0.1,1.1v5.9h-2.5V75.7z M48.9,86.9c2.1,0,3.8-1.7,3.8-4.7
				c0-2.8-1.5-4.7-3.7-4.7c-2,0-3.8,1.4-3.8,4.7C45.2,84.6,46.5,86.9,48.9,86.9z"/>
			<path fill="#1E70B5" d="M56.9,70.6h2.5v2.6h-2.5V70.6z M57,75.7h2.5v13.1H57V75.7z"/>
			<path fill="#1E70B5" d="M62.6,77.9h-1.7v-2h1.8v-3.8h2.4v3.8h3.1v2h-3.1v5.8c0,2.6,1.8,2.9,2.8,2.9c0.4,0,0.6-0.1,0.6-0.1v2.2
				c0,0-0.4,0.1-0.9,0.1c-1.7,0-5-0.5-5-4.9V77.9z"/>
			<path fill="#1E70B5" d="M76.8,80.6h0.6v-0.2c0-2.1-1.2-2.9-2.9-2.9c-2,0-3.6,1.3-3.6,1.3l-1-1.8c0,0,1.9-1.5,4.9-1.5
				c3.3,0,5.2,1.8,5.2,5.1v8.3h-2.3v-1.2c0-0.6,0.1-1,0.1-1h-0.1c0,0-1.1,2.6-4.2,2.6c-2.2,0-4.4-1.4-4.4-4
				C69,80.8,74.6,80.6,76.8,80.6z M73.9,87.1c2.1,0,3.5-2.2,3.5-4.2v-0.4h-0.6c-1.9,0-5.3,0.1-5.3,2.5C71.5,86,72.3,87.1,73.9,87.1z
				"/>
			<path fill="#1E70B5" d="M82.2,70.6h2.5v14.2c0,1.6,0.6,1.9,1.4,1.9c0.2,0,0.4,0,0.4,0v2.2c0,0-0.4,0.1-0.8,0.1
				c-1.4,0-3.5-0.4-3.5-3.7V70.6z"/>
			<path fill="#1E70B5" d="M93.8,70.6h6.7c3.3,0,5.7,2.2,5.7,5.7c0,3.5-2.4,5.8-5.7,5.8h-4.1v6.7h-2.6V70.6z M100,79.8
				c2.2,0,3.5-1.4,3.5-3.6c0-2.2-1.3-3.5-3.5-3.5h-3.7v7H100z"/>
			<path fill="#1E70B5" d="M107.6,75.7h2.4V78c0,0.5-0.1,1-0.1,1h0.1c0.6-1.9,2.1-3.4,4.1-3.4c0.3,0,0.6,0.1,0.6,0.1v2.5
				c0,0-0.3-0.1-0.7-0.1c-1.6,0-3.1,1.1-3.7,3.1c-0.2,0.7-0.3,1.5-0.3,2.3v5.3h-2.5V75.7z"/>
			<path fill="#1E70B5" d="M122,75.4c3.9,0,7,2.9,7,6.8c0,4-3.1,6.9-7,6.9c-3.9,0-7-2.9-7-6.9C115,78.3,118.1,75.4,122,75.4z
				 M122,86.9c2.5,0,4.5-2,4.5-4.7c0-2.7-2-4.6-4.5-4.6c-2.5,0-4.5,1.9-4.5,4.6C117.5,85,119.6,86.9,122,86.9z"/>
			<path fill="#1E70B5" d="M128.9,75.7h2.7l3.2,8.8c0.3,0.7,0.4,1.8,0.4,1.8h0.1c0,0,0.2-1.1,0.5-1.8l3.2-8.8h2.6l-4.8,13.1h-2.9
				L128.9,75.7z"/>
			<path fill="#1E70B5" d="M142.4,70.6h2.5v2.6h-2.5V70.6z M142.4,75.7h2.5v13.1h-2.5V75.7z"/>
			<path fill="#1E70B5" d="M147.5,75.7h2.4v1.7c0,0.5-0.1,1-0.1,1h0.1c0.5-1.1,2.1-3,4.9-3c3.1,0,4.5,1.7,4.5,5v8.4h-2.5V81
				c0-1.8-0.4-3.3-2.5-3.3c-2,0-3.6,1.3-4.1,3.2c-0.2,0.5-0.2,1.1-0.2,1.8v6.1h-2.5V75.7z"/>
			<path fill="#1E70B5" d="M167.8,75.4c3.3,0,4.9,1.9,4.9,1.9l-1.2,1.8c0,0-1.4-1.5-3.6-1.5c-2.6,0-4.5,2-4.5,4.6
				c0,2.7,1.9,4.7,4.6,4.7c2.4,0,4-1.8,4-1.8l1,1.8c0,0-1.8,2.1-5.2,2.1c-4.1,0-7-2.9-7-6.8C160.8,78.4,163.7,75.4,167.8,75.4z"/>
			<path fill="#1E70B5" d="M174.6,70.6h2.5v2.6h-2.5V70.6z M174.6,75.7h2.5v13.1h-2.5V75.7z"/>
			<path fill="#1E70B5" d="M186.5,80.6h0.6v-0.2c0-2.1-1.2-2.9-2.9-2.9c-2,0-3.6,1.3-3.6,1.3l-1-1.8c0,0,1.9-1.5,4.9-1.5
				c3.3,0,5.2,1.8,5.2,5.1v8.3h-2.3v-1.2c0-0.6,0.1-1,0.1-1h-0.1c0,0-1.1,2.6-4.2,2.6c-2.2,0-4.4-1.4-4.4-4
				C178.7,80.8,184.3,80.6,186.5,80.6z M183.6,87.1c2.1,0,3.5-2.2,3.5-4.2v-0.4h-0.6c-1.9,0-5.3,0.1-5.3,2.5
				C181.2,86,182,87.1,183.6,87.1z"/>
			<path fill="#1E70B5" d="M191.9,70.6h2.5v14.2c0,1.6,0.6,1.9,1.4,1.9c0.2,0,0.4,0,0.4,0v2.2c0,0-0.4,0.1-0.8,0.1
				c-1.4,0-3.5-0.4-3.5-3.7V70.6z"/>
			<path fill="#1E70B5" d="M203.5,70.6h2.5l8.1,11.8c0.7,1,1.5,2.6,1.5,2.6h0.1c0,0-0.2-1.6-0.2-2.6V70.6h2.6v18.2h-2.5L207.4,77
				c-0.7-1-1.5-2.7-1.5-2.7h-0.1c0,0,0.2,1.6,0.2,2.7v11.8h-2.6V70.6z"/>
			<path fill="#1E70B5" d="M226.8,75.4c3.7,0,5.6,2.7,5.6,6.1c0,0.3-0.1,1.1-0.1,1.1h-9.5c0.1,2.9,2.2,4.3,4.5,4.3
				c2.2,0,3.9-1.5,3.9-1.5l1,1.8c0,0-1.9,1.9-5.1,1.9c-4.1,0-6.9-3-6.9-6.8C220.3,78.1,223.1,75.4,226.8,75.4z M229.9,80.7
				c-0.1-2.2-1.5-3.3-3.1-3.3c-1.9,0-3.5,1.2-3.8,3.3H229.9z"/>
			<path fill="#1E70B5" d="M234,75.7h2.5v7.8c0,1.8,0.4,3.3,2.5,3.3c2.7,0,4.2-2.3,4.2-4.9v-6.1h2.5v13.1h-2.4V87c0-0.5,0.1-1,0.1-1
				h-0.1c-0.5,1.3-2.2,3-4.8,3c-2.9,0-4.5-1.5-4.5-5V75.7z"/>
			<path fill="#1E70B5" d="M253.4,75.4c3,0,4.1,2.2,4.1,2.2h0.1c0,0,0-0.4,0-0.9v-1h2.4v18.2h-2.5v-6c0-0.7,0-1.1,0-1.1h0
				c0,0-1.1,2.2-4.2,2.2c-3.5,0-5.8-2.8-5.8-6.8C247.5,78.1,249.9,75.4,253.4,75.4z M253.7,86.9c1.9,0,3.8-1.4,3.8-4.7
				c0-2.3-1.2-4.6-3.7-4.6c-2.1,0-3.8,1.7-3.8,4.7C250,85.1,251.6,86.9,253.7,86.9z"/>
			<path fill="#1E70B5" d="M262.4,75.7h2.5v7.8c0,1.8,0.4,3.3,2.5,3.3c2.7,0,4.2-2.3,4.2-4.9v-6.1h2.5v13.1h-2.4V87c0-0.5,0-1,0-1h0
				c-0.5,1.3-2.2,3-4.8,3c-2.9,0-4.5-1.5-4.5-5V75.7z"/>
			<path fill="#1E70B5" d="M282.3,75.4c3.7,0,5.6,2.7,5.6,6.1c0,0.3-0.1,1.1-0.1,1.1h-9.5c0.1,2.9,2.2,4.3,4.5,4.3
				c2.2,0,3.9-1.5,3.9-1.5l1,1.8c0,0-1.9,1.9-5.1,1.9c-4.1,0-6.9-3-6.9-6.8C275.8,78.1,278.6,75.4,282.3,75.4z M285.4,80.7
				c-0.1-2.2-1.5-3.3-3.1-3.3c-1.9,0-3.5,1.2-3.8,3.3H285.4z M283.1,70.6h2.7l-2.5,3.3h-2.1L283.1,70.6z"/>
			<path fill="#1E70B5" d="M289.7,75.7h2.4v1.7c0,0.5-0.1,1-0.1,1h0.1c0.5-1.1,2.1-3,4.9-3c3.1,0,4.5,1.7,4.5,5v8.4H299V81
				c0-1.8-0.4-3.3-2.5-3.3c-2,0-3.6,1.3-4.1,3.2c-0.2,0.5-0.2,1.1-0.2,1.8v6.1h-2.5V75.7z"/>
		</g>
		<g>
			<path fill="#3EB4E7" stroke="#3EB4E7" stroke-width="0.5" stroke-miterlimit="10" d="M32.9,96.4h4.3c4,0,6.8,2.5,6.8,6.8
				c0,4.3-2.7,6.8-6.8,6.8h-4.3V96.4z M37,109.1c3.6,0,6-2.1,6-6c0-3.9-2.4-6-6-6h-3.3v12H37z"/>
			<path fill="#3EB4E7" stroke="#3EB4E7" stroke-width="0.5" stroke-miterlimit="10" d="M46.9,100.2h0.8v1.8c0,0.4-0.1,0.8-0.1,0.8
				h0c0.5-1.5,1.6-2.7,3.1-2.7c0.3,0,0.6,0.1,0.6,0.1v0.8c0,0-0.2,0-0.4,0c-1.5,0-2.5,1.3-2.9,2.7c-0.2,0.7-0.3,1.4-0.3,2v4.2h-0.8
				V100.2z"/>
			<path fill="#3EB4E7" stroke="#3EB4E7" stroke-width="0.5" stroke-miterlimit="10" d="M52.7,108.7h1.2v1.2h-1.2V108.7z"/>
			<path fill="#3EB4E7" stroke="#3EB4E7" stroke-width="0.5" stroke-miterlimit="10" d="M63.1,96.4h7.4v0.8h-6.6v5.6h5.4v0.8h-5.4
				v5.7h6.9v0.8h-7.8V96.4z"/>
			<path fill="#3EB4E7" stroke="#3EB4E7" stroke-width="0.5" stroke-miterlimit="10" d="M77.4,100c2.4,0,3.3,2.2,3.3,2.2h0
				c0,0-0.1-0.3-0.1-0.8v-5h0.8v13.5h-0.8v-1.2c0-0.4,0.1-0.7,0.1-0.7h0c0,0-0.8,2.2-3.5,2.2c-2.6,0-4.2-2.1-4.2-5.1
				C73.1,102,74.9,100,77.4,100z M77.3,109.4c1.8,0,3.4-1.3,3.4-4.3c0-2.1-1.1-4.3-3.4-4.3c-1.9,0-3.4,1.6-3.4,4.3
				C73.9,107.7,75.3,109.4,77.3,109.4z"/>
			<path fill="#3EB4E7" stroke="#3EB4E7" stroke-width="0.5" stroke-miterlimit="10" d="M84.8,100.2h0.8v5.8c0,1.7,0.2,3.3,2.4,3.3
				c2.4,0,4-2.1,4-4.4v-4.7h0.8v9.7H92v-1.7c0-0.4,0.1-0.8,0.1-0.8h0c-0.3,0.9-1.7,2.7-4,2.7c-2.4,0-3.2-1.3-3.2-3.8V100.2z"/>
			<path fill="#3EB4E7" stroke="#3EB4E7" stroke-width="0.5" stroke-miterlimit="10" d="M101.4,104h0.6v-0.3c0-2.1-1.1-2.9-2.6-2.9
				c-1.7,0-2.8,0.9-2.8,0.9l-0.5-0.7c0,0,1.2-1.1,3.3-1.1c2.2,0,3.4,1.2,3.4,3.7v6.2H102v-1.3c0-0.5,0.1-0.9,0.1-0.9h0
				c0,0-0.9,2.4-3.4,2.4c-1.6,0-3.3-0.9-3.3-2.8C95.4,104.1,99.7,104,101.4,104z M98.7,109.4c2.1,0,3.3-2.2,3.3-4.1v-0.5h-0.6
				c-1.6,0-5.2,0-5.2,2.5C96.2,108.3,97.1,109.4,98.7,109.4z"/>
			<path fill="#3EB4E7" stroke="#3EB4E7" stroke-width="0.5" stroke-miterlimit="10" d="M106.1,100.2h0.8v1.8c0,0.4-0.1,0.8-0.1,0.8
				h0c0.5-1.5,1.6-2.7,3.1-2.7c0.3,0,0.6,0.1,0.6,0.1v0.8c0,0-0.2,0-0.4,0c-1.5,0-2.5,1.3-2.9,2.7c-0.2,0.7-0.3,1.4-0.3,2v4.2h-0.8
				V100.2z"/>
			<path fill="#3EB4E7" stroke="#3EB4E7" stroke-width="0.5" stroke-miterlimit="10" d="M116.2,100c2.4,0,3.3,2.2,3.3,2.2h0
				c0,0-0.1-0.3-0.1-0.8v-5h0.8v13.5h-0.8v-1.2c0-0.4,0.1-0.7,0.1-0.7h0c0,0-0.8,2.2-3.5,2.2c-2.6,0-4.2-2.1-4.2-5.1
				C111.9,102,113.7,100,116.2,100z M116.1,109.4c1.8,0,3.4-1.3,3.4-4.3c0-2.1-1.1-4.3-3.4-4.3c-1.9,0-3.4,1.6-3.4,4.3
				C112.7,107.7,114.1,109.4,116.1,109.4z"/>
			<path fill="#3EB4E7" stroke="#3EB4E7" stroke-width="0.5" stroke-miterlimit="10" d="M128,100c2.8,0,5,2.2,5,5
				c0,2.9-2.2,5.1-5,5.1s-5-2.2-5-5.1C123,102.2,125.3,100,128,100z M128,109.4c2.3,0,4.2-1.9,4.2-4.3c0-2.4-1.9-4.2-4.2-4.2
				s-4.2,1.8-4.2,4.2C123.9,107.5,125.7,109.4,128,109.4z"/>
			<path fill="#3EB4E7" stroke="#3EB4E7" stroke-width="0.5" stroke-miterlimit="10" d="M147.3,96.1c3.2,0,4.8,1.7,4.8,1.7l-0.5,0.6
				c0,0-1.6-1.5-4.3-1.5c-3.3,0-5.9,2.6-5.9,6.1c0,3.5,2.5,6.3,5.9,6.3c2.9,0,4.6-1.8,4.6-1.8l0.5,0.6c0,0-1.8,2-5.1,2
				c-3.9,0-6.8-3.2-6.8-7.1C140.6,99.1,143.5,96.1,147.3,96.1z"/>
			<path fill="#3EB4E7" stroke="#3EB4E7" stroke-width="0.5" stroke-miterlimit="10" d="M160.5,104h0.6v-0.3c0-2.1-1.1-2.9-2.6-2.9
				c-1.7,0-2.8,0.9-2.8,0.9l-0.5-0.7c0,0,1.2-1.1,3.3-1.1c2.2,0,3.4,1.2,3.4,3.7v6.2h-0.8v-1.3c0-0.5,0.1-0.9,0.1-0.9h0
				c0,0-0.9,2.4-3.4,2.4c-1.6,0-3.3-0.9-3.3-2.8C154.5,104.1,158.8,104,160.5,104z M157.8,109.4c2.1,0,3.3-2.2,3.3-4.1v-0.5h-0.6
				c-1.6,0-5.2,0-5.2,2.5C155.3,108.3,156.2,109.4,157.8,109.4z"/>
			<path fill="#3EB4E7" stroke="#3EB4E7" stroke-width="0.5" stroke-miterlimit="10" d="M164.9,108.1c0,0,1.1,1.2,3,1.2
				c1.2,0,2.2-0.6,2.2-1.8c0-2.5-5.3-1.8-5.3-4.9c0-1.7,1.5-2.6,3.1-2.6c2,0,2.9,1,2.9,1l-0.5,0.7c0,0-0.8-0.9-2.4-0.9
				c-1.1,0-2.2,0.5-2.2,1.8c0,2.5,5.3,1.8,5.3,5c0,1.5-1.3,2.6-3.1,2.6c-2.3,0-3.5-1.4-3.5-1.4L164.9,108.1z"/>
			<path fill="#3EB4E7" stroke="#3EB4E7" stroke-width="0.5" stroke-miterlimit="10" d="M174,101h-1.3v-0.7h1.3v-2.7h0.8v2.7h2.5
				v0.7h-2.5v5.3c0,2.6,1.5,2.9,2.3,2.9c0.3,0,0.4,0,0.4,0v0.8c0,0-0.2,0-0.5,0c-1,0-3.1-0.4-3.1-3.6V101z"/>
			<path fill="#3EB4E7" stroke="#3EB4E7" stroke-width="0.5" stroke-miterlimit="10" d="M179.7,100.2h0.8v1.8c0,0.4-0.1,0.8-0.1,0.8
				h0c0.5-1.5,1.6-2.7,3.1-2.7c0.3,0,0.6,0.1,0.6,0.1v0.8c0,0-0.2,0-0.4,0c-1.5,0-2.5,1.3-2.9,2.7c-0.2,0.7-0.3,1.4-0.3,2v4.2h-0.8
				V100.2z"/>
			<path fill="#3EB4E7" stroke="#3EB4E7" stroke-width="0.5" stroke-miterlimit="10" d="M190.3,100c2.8,0,5,2.2,5,5
				c0,2.9-2.2,5.1-5,5.1c-2.8,0-5-2.2-5-5.1C185.3,102.2,187.6,100,190.3,100z M190.3,109.4c2.3,0,4.2-1.9,4.2-4.3
				c0-2.4-1.9-4.2-4.2-4.2c-2.3,0-4.2,1.8-4.2,4.2C186.2,107.5,188,109.4,190.3,109.4z"/>
			<path fill="#3EB4E7" stroke="#3EB4E7" stroke-width="0.5" stroke-miterlimit="10" d="M203.8,96.4h4c1.3,0,1.9,0.1,2.4,0.4
				c1.1,0.6,1.9,1.7,1.9,3.3c0,1.9-1.1,3.4-2.7,3.7v0c0,0,0.1,0.2,0.3,0.5l3,5.6h-1l-3.2-6h-3.9v6h-0.8V96.4z M208.3,103.1
				c1.8,0,2.9-1.3,2.9-3.1c0-1.2-0.6-2.2-1.6-2.6c-0.4-0.2-0.8-0.3-1.9-0.3h-3.1v6H208.3z"/>
			<path fill="#3EB4E7" stroke="#3EB4E7" stroke-width="0.5" stroke-miterlimit="10" d="M219.3,100c2.6,0,3.9,2.1,3.9,4.4
				c0,0.2,0,0.5,0,0.5h-7.8c0,2.8,1.9,4.4,4.1,4.4c1.9,0,3-1.2,3-1.2l0.4,0.7c0,0-1.4,1.3-3.4,1.3c-2.7,0-5-2-5-5
				C214.6,101.8,216.8,100,219.3,100z M222.4,104.2c-0.1-2.4-1.5-3.4-3.1-3.4c-1.8,0-3.4,1.2-3.8,3.4H222.4z"/>
			<path fill="#3EB4E7" stroke="#3EB4E7" stroke-width="0.5" stroke-miterlimit="10" d="M226,100.2h0.8v1.7c0,0.4-0.1,0.8-0.1,0.8h0
				c0.3-0.9,1.7-2.7,4.1-2.7c2.5,0,3.2,1.5,3.2,3.8v6.1h-0.8v-5.8c0-1.7-0.2-3.3-2.4-3.3c-1.8,0-3.4,1.3-3.9,3.1
				c-0.1,0.4-0.2,0.9-0.2,1.3v4.7H226V100.2z"/>
			<path fill="#3EB4E7" stroke="#3EB4E7" stroke-width="0.5" stroke-miterlimit="10" d="M241,100c2.4,0,3.3,2.2,3.3,2.2h0
				c0,0-0.1-0.3-0.1-0.8v-5h0.8v13.5h-0.8v-1.2c0-0.4,0.1-0.7,0.1-0.7h0c0,0-0.8,2.2-3.5,2.2c-2.6,0-4.2-2.1-4.2-5.1
				C236.7,102,238.5,100,241,100z M240.9,109.4c1.8,0,3.4-1.3,3.4-4.3c0-2.1-1.1-4.3-3.4-4.3c-1.9,0-3.4,1.6-3.4,4.3
				C237.5,107.7,238.9,109.4,240.9,109.4z"/>
			<path fill="#3EB4E7" stroke="#3EB4E7" stroke-width="0.5" stroke-miterlimit="10" d="M252.8,100c2.8,0,5,2.2,5,5
				c0,2.9-2.2,5.1-5,5.1c-2.8,0-5-2.2-5-5.1C247.8,102.2,250.1,100,252.8,100z M252.8,109.4c2.3,0,4.2-1.9,4.2-4.3
				c0-2.4-1.9-4.2-4.2-4.2c-2.3,0-4.2,1.8-4.2,4.2C248.7,107.5,250.5,109.4,252.8,109.4z M253.7,96.4h1.1l-1.5,2.1h-0.9L253.7,96.4z
				"/>
			<path fill="#3EB4E7" stroke="#3EB4E7" stroke-width="0.5" stroke-miterlimit="10" d="M260.5,100.2h0.8v1.7c0,0.4-0.1,0.8-0.1,0.8
				h0c0.3-0.9,1.7-2.7,4.1-2.7c2.5,0,3.2,1.5,3.2,3.8v6.1h-0.8v-5.8c0-1.7-0.2-3.3-2.4-3.3c-1.8,0-3.4,1.3-3.9,3.1
				c-0.1,0.4-0.2,0.9-0.2,1.3v4.7h-0.8V100.2z"/>
		</g>
	</g>
	<g>
		<g>
			<defs>
				
					<ellipse id="SVGID_1_" transform="matrix(0.9239 -0.3827 0.3827 0.9239 -4.0622 37.9442)" cx="93.3" cy="29.2" rx="18.1" ry="18.1"/>
			</defs>
			<clipPath id="SVGID_2_">
				<use xlink:href="#SVGID_1_"  overflow="visible"/>
			</clipPath>
			<g clip-path="url(#SVGID_2_)">
				<rect x="73" y="26.6" fill="#CB0053" width="12.7" height="5.1"/>
				<rect x="90.8" y="36.8" fill="#CB0053" width="5.1" height="12.7"/>
				<rect x="90.8" y="8.9" fill="#CB0053" width="5.1" height="12.7"/>
				<rect x="101" y="26.6" fill="#CB0053" width="12.7" height="5.1"/>
				<g>
					<polygon fill="#CB0053" points="97.2,0 89.5,0 81.9,0 81.9,15.2 88.9,15.2 88.9,8.9 88.9,7 90.8,7 95.9,7 97.8,7 97.8,8.9 
						97.8,15.2 104.8,15.2 104.8,0 					"/>
				</g>
				<g>
					<polygon fill="#CB0053" points="97.8,43.1 97.8,49.5 97.8,51.4 95.9,51.4 90.8,51.4 88.9,51.4 88.9,49.5 88.9,43.1 81.9,43.1 
						81.9,58.4 89.5,58.4 97.2,58.4 104.8,58.4 104.8,43.1 					"/>
				</g>
				<g>
					<polygon fill="#CB0053" points="73,33.6 71.1,33.6 71.1,31.7 71.1,26.6 71.1,24.7 73,24.7 79.4,24.7 79.4,17.8 64.2,17.8 
						64.2,25.4 64.2,33 64.2,40.6 79.4,40.6 79.4,33.6 					"/>
				</g>
				<g>
					<polygon fill="#CB0053" points="107.3,17.8 107.3,24.7 113.6,24.7 115.6,24.7 115.6,26.6 115.6,31.7 115.6,33.6 113.6,33.6 
						107.3,33.6 107.3,40.6 122.5,40.6 122.5,33 122.5,25.4 122.5,17.8 					"/>
				</g>
				<g>
					<polygon fill="#CB0053" points="88.9,37.1 85.4,37.1 85.4,33.6 81.9,33.6 81.9,40.6 88.9,40.6 					"/>
					<polygon fill="#CB0053" points="97.8,21.3 101.3,21.3 101.3,24.7 104.8,24.7 104.8,17.8 97.8,17.8 					"/>
					<polygon fill="#CB0053" points="85.4,24.7 85.4,21.3 88.9,21.3 88.9,17.8 81.9,17.8 81.9,24.7 					"/>
					<polygon fill="#CB0053" points="101.3,33.6 101.3,37.1 97.8,37.1 97.8,40.6 104.8,40.6 104.8,33.6 					"/>
				</g>
			</g>
		</g>
		<g>
			<path fill="#1E70B5" d="M123.4,29.1v8.7c0,1.7,0.2,2.7,0.5,3c0.3,0.3,1.5,0.5,3.3,0.6l0.4,0v1.2h-13.5v-1.2l0.4,0
				c1.9-0.1,3-0.3,3.3-0.6c0.3-0.3,0.5-1.3,0.5-3V19.9c0-1.7-0.2-2.7-0.5-3c-0.3-0.3-1.5-0.5-3.3-0.6l-0.4,0v-1.2h13.5v1.2l-0.4,0
				c-1.9,0.1-3,0.3-3.3,0.6c-0.3,0.3-0.5,1.3-0.5,3v7.6h16.4v-7.6c0-1.7-0.2-2.7-0.5-3c-0.3-0.3-1.5-0.5-3.4-0.6l-0.4,0v-1.2h13.5
				v1.2l-0.4,0c-1.9,0.1-3,0.3-3.3,0.6c-0.3,0.3-0.5,1.3-0.5,3v17.9c0,1.7,0.2,2.7,0.5,3c0.3,0.3,1.5,0.5,3.3,0.6l0.4,0v1.2h-13.5
				v-1.2l0.4,0c1.9-0.1,3-0.3,3.4-0.6c0.3-0.3,0.5-1.3,0.5-3v-8.7H123.4z"/>
			<path fill="#1E70B5" d="M160.1,31.1v6.7c0,1.6,0.2,2.6,0.6,3c0.4,0.4,1.5,0.6,3.3,0.6l1,0v1.2h-14v-1.2l0.4,0
				c1.9-0.1,3-0.3,3.3-0.6c0.3-0.3,0.5-1.3,0.5-3V19.9c0-1.7-0.2-2.7-0.5-3c-0.3-0.3-1.5-0.5-3.3-0.6l-0.4,0v-1.2h10.1l3.4-0.1
				l1.6,0c6.6,0,10,2.4,10,7.3c0,3-1.2,5.2-3.6,6.7c-2.4,1.5-6,2.2-10.9,2.2H160.1z M160.1,29.9h1.7c3,0,5.3-0.6,6.8-1.9
				c1.5-1.3,2.3-3.2,2.3-5.7c0-2.1-0.6-3.7-1.7-4.6c-1.1-0.9-3.1-1.4-5.8-1.4h-3.3V29.9z"/>
			<path fill="#1E70B5" d="M205.4,43l-20.8-23v17.9c0,1.7,0.2,2.7,0.5,3c0.3,0.3,1.5,0.5,3.4,0.6l0.4,0v1.2h-10.8v-1.2l0.4,0
				c1.9-0.1,3-0.3,3.4-0.6c0.3-0.3,0.5-1.3,0.5-3V19.9c0-1.7-0.2-2.7-0.5-3c-0.3-0.3-1.5-0.5-3.4-0.6l-0.4,0v-1.2h7.8l19.1,21.4
				V19.9c0-1.7-0.2-2.7-0.5-3c-0.3-0.3-1.5-0.5-3.4-0.6l-0.4,0v-1.2h10.7v1.2l-0.4,0c-1.9,0.1-3,0.3-3.3,0.6c-0.3,0.3-0.5,1.3-0.5,3
				V43H205.4z"/>
		</g>
		<path fill="#1E70B5" d="M216,7.3v43.8H93.3c-12.1,0-21.9-9.8-21.9-21.9c0-12.1,9.8-21.9,21.9-21.9H216 M217.3,6H216H93.3
			C80.6,6,70.1,16.4,70.1,29.2c0,12.8,10.4,23.2,23.2,23.2H216h1.3v-1.3V7.3V6L217.3,6z"/>
	</g>
</g>
</svg>
