<svg xmlns="http://www.w3.org/2000/svg" xmlns:xlink="http://www.w3.org/1999/xlink" width="280.1" height="88.3" viewBox="0 0 280.1 88.3">
  <defs>
    <clipPath id="clip-path">
      <circle cx="44.2" cy="44.2" r="34.4" fill="none"/>
    </clipPath>
  </defs>
  <title>andes-hpn-marca-responsive</title>
  <g id="texto">
    <g clip-path="url(#clip-path)">
      <rect x="5.5" y="39.3" width="24.2" height="9.66" fill="#cb0053"/>
      <rect x="39.3" y="58.7" width="9.7" height="24.15" fill="#cb0053"/>
      <rect x="39.3" y="5.5" width="9.7" height="24.15" fill="#cb0053"/>
      <rect x="58.7" y="39.3" width="24.2" height="9.66" fill="#cb0053"/>
      <polygon points="51.4 -11.4 36.9 -11.4 22.4 -11.4 22.4 17.6 35.7 17.6 35.7 5.5 35.7 1.9 39.3 1.9 49 1.9 52.6 1.9 52.6 5.5 52.6 17.6 65.9 17.6 65.9 -11.4 51.4 -11.4" fill="#cb0053"/>
      <polygon points="52.6 70.7 52.6 82.8 52.6 86.4 49 86.4 39.3 86.4 35.7 86.4 35.7 82.8 35.7 70.7 22.4 70.7 22.4 99.7 36.9 99.7 51.4 99.7 65.9 99.7 65.9 70.7 52.6 70.7" fill="#cb0053"/>
      <polygon points="5.5 52.6 1.9 52.6 1.9 49 1.9 39.3 1.9 35.7 5.5 35.7 17.6 35.7 17.6 22.4 -11.4 22.4 -11.4 36.9 -11.4 51.4 -11.4 65.9 17.6 65.9 17.6 52.6 5.5 52.6" fill="#cb0053"/>
      <polygon points="70.7 22.4 70.7 35.7 82.8 35.7 86.4 35.7 86.4 39.3 86.4 49 86.4 52.6 82.8 52.6 70.7 52.6 70.7 65.9 99.7 65.9 99.7 51.4 99.7 36.9 99.7 22.4 70.7 22.4" fill="#cb0053"/>
      <g>
        <polygon points="35.7 59.3 29.1 59.3 29.1 52.6 22.4 52.6 22.4 65.9 35.7 65.9 35.7 59.3" fill="#cb0053"/>
        <polygon points="52.6 29.1 59.3 29.1 59.3 35.7 65.9 35.7 65.9 22.4 52.6 22.4 52.6 29.1" fill="#cb0053"/>
        <polygon points="29.1 35.7 29.1 29.1 35.7 29.1 35.7 22.4 22.4 22.4 22.4 35.7 29.1 35.7" fill="#cb0053"/>
        <polygon points="59.3 52.6 59.3 59.3 52.6 59.3 52.6 65.9 65.9 65.9 65.9 52.6 59.3 52.6" fill="#cb0053"/>
      </g>
    </g>
    <g>
      <path d="M101.4,44V60.5q0,4.8,1,5.7t6.4,1.2h.8v2.2H83.9V67.5h.8q5.4-.3,6.3-1.2t1-5.7v-34q0-4.8-1-5.7t-6.3-1.2h-.8V17.3h25.6v2.2h-.8q-5.4.3-6.4,1.2t-1,5.7V41h31.1V26.5q0-4.8-1-5.7t-6.4-1.2h-.8V17.3H150v2.2h-.8q-5.4.3-6.4,1.2t-1,5.7v34q0,4.8,1,5.7t6.4,1.2h.8v2.2H124.3V67.5h.8q5.4-.3,6.4-1.2t1-5.7V44Z" fill="#1e70b5"/>
      <path d="M171.1,47.8V60.5q0,4.7,1.1,5.7t6.3,1.2h1.9v2.2H153.8V67.5h.8q5.4-.3,6.3-1.2t1-5.7v-34q0-4.8-1-5.7t-6.3-1.2h-.8V17.3h19.3l6.4-.2h3q19,0,19,13.8,0,8.4-6.9,12.7t-20.7,4.2Zm0-2.4h3.3q8.6,0,13-3.6T191.7,31q0-6.1-3.3-8.7t-11-2.6h-6.3Z" fill="#1e70b5"/>
      <path d="M257.5,70.4,218,26.5v34q0,4.8,1,5.7t6.4,1.2h.8v2.2H205.7V67.5h.8q5.4-.3,6.4-1.2t1-5.7v-34q0-4.8-1-5.7t-6.4-1.2h-.8V17.3h14.8L256.8,58V26.5q0-4.8-1-5.7t-6.4-1.2h-.8V17.3H269v2.2h-.8q-5.4.3-6.4,1.2t-1,5.7V70.4Z" fill="#1e70b5"/>
    </g>
    <path d="M277.6,2.5V85.8H44.2a41.7,41.7,0,1,1,0-83.3H277.6M280.1,0H44.2a44.2,44.2,0,1,0,0,88.3h236V0Z" fill="#1e70b5"/>
  </g>
</svg>
