<?xml version="1.0" encoding="utf-8"?>
<!-- Generator: Adobe Illustrator 22.0.1, SVG Export Plug-In . SVG Version: 6.00 Build 0)  -->
<svg version="1.1" id="Layer_1" xmlns="http://www.w3.org/2000/svg" xmlns:xlink="http://www.w3.org/1999/xlink" x="0px" y="0px"
	 viewBox="0 0 524.4 60.6" enable-background="new 0 0 524.4 60.6" xml:space="preserve">
<g>
	<g>
		<defs>
			
				<ellipse id="SVGID_1_" transform="matrix(0.9239 -0.3827 0.3827 0.9239 -9.2839 13.8944)" cx="30.3" cy="30.3" rx="18.8" ry="18.8"/>
		</defs>
		<clipPath id="SVGID_2_">
			<use xlink:href="#SVGID_1_"  overflow="visible"/>
		</clipPath>
		<g clip-path="url(#SVGID_2_)">
			<rect x="9.2" y="27.7" fill="#CB0053" width="13.2" height="5.3"/>
			<rect x="27.7" y="38.2" fill="#CB0053" width="5.3" height="13.2"/>
			<rect x="27.7" y="9.2" fill="#CB0053" width="5.3" height="13.2"/>
			<rect x="38.2" y="27.7" fill="#CB0053" width="13.2" height="5.3"/>
			<g>
				<polygon fill="#CB0053" points="34.2,0 26.3,0 18.4,0 18.4,15.8 25.7,15.8 25.7,9.2 25.7,7.2 27.7,7.2 32.9,7.2 34.9,7.2 
					34.9,9.2 34.9,15.8 42.1,15.8 42.1,0 				"/>
			</g>
			<g>
				<polygon fill="#CB0053" points="34.9,44.8 34.9,51.4 34.9,53.3 32.9,53.3 27.7,53.3 25.7,53.3 25.7,51.4 25.7,44.8 18.4,44.8 
					18.4,60.6 26.3,60.6 34.2,60.6 42.1,60.6 42.1,44.8 				"/>
			</g>
			<g>
				<polygon fill="#CB0053" points="9.2,34.9 7.2,34.9 7.2,32.9 7.2,27.7 7.2,25.7 9.2,25.7 15.8,25.7 15.8,18.4 0,18.4 0,26.3 
					0,34.2 0,42.1 15.8,42.1 15.8,34.9 				"/>
			</g>
			<g>
				<polygon fill="#CB0053" points="44.8,18.4 44.8,25.7 51.4,25.7 53.3,25.7 53.3,27.7 53.3,32.9 53.3,34.9 51.4,34.9 44.8,34.9 
					44.8,42.1 60.6,42.1 60.6,34.2 60.6,26.3 60.6,18.4 				"/>
			</g>
			<g>
				<polygon fill="#CB0053" points="25.7,38.5 22.1,38.5 22.1,34.9 18.4,34.9 18.4,42.1 25.7,42.1 				"/>
				<polygon fill="#CB0053" points="34.9,22.1 38.5,22.1 38.5,25.7 42.1,25.7 42.1,18.4 34.9,18.4 				"/>
				<polygon fill="#CB0053" points="22.1,25.7 22.1,22.1 25.7,22.1 25.7,18.4 18.4,18.4 18.4,25.7 				"/>
				<polygon fill="#CB0053" points="38.5,34.9 38.5,38.5 34.9,38.5 34.9,42.1 42.1,42.1 42.1,34.9 				"/>
			</g>
		</g>
	</g>
	<g>
		<path fill="#1E70B5" d="M61.5,30.2v9c0,1.7,0.2,2.8,0.5,3.1c0.4,0.3,1.5,0.6,3.5,0.7l0.5,0v1.2h-14V43l0.5,0
			c1.9-0.1,3.1-0.3,3.5-0.7c0.4-0.3,0.5-1.4,0.5-3.1V20.6c0-1.7-0.2-2.8-0.5-3.1c-0.4-0.3-1.5-0.6-3.5-0.7l-0.5,0v-1.2h14v1.2
			l-0.5,0c-2,0.1-3.1,0.3-3.5,0.7c-0.4,0.3-0.5,1.4-0.5,3.1v7.9h17v-7.9c0-1.7-0.2-2.8-0.5-3.1c-0.4-0.3-1.5-0.6-3.5-0.7l-0.4,0
			v-1.2h14v1.2l-0.5,0c-2,0.1-3.1,0.3-3.5,0.7c-0.4,0.3-0.5,1.4-0.5,3.1v18.6c0,1.7,0.2,2.8,0.5,3.1c0.4,0.3,1.5,0.6,3.5,0.7l0.5,0
			v1.2H74V43l0.4,0c2-0.1,3.1-0.3,3.5-0.7c0.4-0.3,0.5-1.4,0.5-3.1v-9H61.5z"/>
		<path fill="#1E70B5" d="M99.5,32.3v6.9c0,1.7,0.2,2.7,0.6,3.1c0.4,0.4,1.5,0.6,3.4,0.7l1,0v1.2H90V43l0.5,0
			c1.9-0.1,3.1-0.3,3.5-0.7c0.4-0.3,0.5-1.4,0.5-3.1V20.6c0-1.7-0.2-2.8-0.5-3.1c-0.4-0.3-1.5-0.6-3.5-0.7l-0.5,0v-1.2h10.5l3.5-0.1
			l1.7,0c6.9,0,10.3,2.5,10.3,7.5c0,3.1-1.3,5.4-3.8,6.9c-2.5,1.5-6.3,2.3-11.3,2.3H99.5z M99.5,31h1.8c3.1,0,5.5-0.7,7.1-2
			c1.6-1.3,2.3-3.3,2.3-5.9c0-2.2-0.6-3.8-1.8-4.8c-1.2-1-3.2-1.4-6-1.4h-3.4V31z"/>
		<path fill="#1E70B5" d="M146.6,44.6L125,20.7v18.5c0,1.7,0.2,2.8,0.5,3.1c0.4,0.3,1.5,0.5,3.5,0.7l0.4,0v1.2h-11.2V43l0.4,0
			c2-0.1,3.1-0.3,3.5-0.7c0.4-0.3,0.5-1.4,0.5-3.1V20.6c0-1.8-0.2-2.8-0.5-3.1c-0.4-0.3-1.5-0.5-3.5-0.6l-0.5,0v-1.2h8.1l19.8,22.2
			V20.6c0-1.7-0.2-2.8-0.5-3.1c-0.4-0.3-1.5-0.6-3.5-0.7l-0.4,0v-1.2h11.1v1.2l-0.5,0c-2,0.1-3.1,0.3-3.5,0.7
			c-0.4,0.3-0.5,1.4-0.5,3.1v23.9H146.6z"/>
	</g>
	<g>
		<path fill="#1E70B5" d="M180.8,7.9h2.9V17h10.8V7.9h2.9v20.8h-2.9v-9.1h-10.8v9.1h-2.9V7.9z"/>
		<path fill="#1E70B5" d="M207.9,13.4c4.4,0,8,3.3,8,7.8c0,4.5-3.6,7.8-8,7.8c-4.4,0-8-3.3-8-7.8C199.9,16.7,203.5,13.4,207.9,13.4z
			 M207.9,26.5c2.8,0,5.1-2.2,5.1-5.3c0-3.1-2.3-5.3-5.1-5.3c-2.8,0-5.1,2.2-5.1,5.3C202.8,24.3,205.2,26.5,207.9,26.5z"/>
		<path fill="#1E70B5" d="M218,24.8c0,0,1.7,1.7,4.3,1.7c1.2,0,2.5-0.6,2.5-1.9c0-2.7-7.6-2.2-7.6-7c0-2.7,2.4-4.2,5.4-4.2
			c3.3,0,4.8,1.6,4.8,1.6l-1.1,2.1c0,0-1.3-1.3-3.7-1.3c-1.2,0-2.4,0.5-2.4,1.8c0,2.7,7.6,2.1,7.6,7c0,2.5-2.1,4.3-5.4,4.3
			c-3.6,0-5.6-2.2-5.6-2.2L218,24.8z"/>
		<path fill="#1E70B5" d="M229.6,13.8h2.6V15c0,0.6-0.1,1.1-0.1,1.1h0.1c0,0,1.3-2.7,5-2.7c4,0,6.5,3.2,6.5,7.8
			c0,4.7-2.9,7.8-6.7,7.8c-3.3,0-4.6-2.4-4.6-2.4h-0.1c0,0,0.1,0.5,0.1,1.3v6.7h-2.9V13.8z M236.5,26.5c2.4,0,4.3-1.9,4.3-5.3
			c0-3.2-1.7-5.3-4.2-5.3c-2.2,0-4.3,1.6-4.3,5.3C232.3,23.9,233.8,26.5,236.5,26.5z"/>
		<path fill="#1E70B5" d="M245.7,7.9h2.9v2.9h-2.9V7.9z M245.7,13.8h2.9v14.9h-2.9V13.8z"/>
		<path fill="#1E70B5" d="M252.2,16.3h-1.9V14h2V9.7h2.8V14h3.6v2.3H255v6.6c0,3,2.1,3.4,3.2,3.4c0.4,0,0.7-0.1,0.7-0.1v2.5
			c0,0-0.4,0.1-1,0.1c-1.9,0-5.7-0.6-5.7-5.6V16.3z"/>
		<path fill="#1E70B5" d="M268.4,19.3h0.6v-0.3c0-2.4-1.4-3.3-3.3-3.3c-2.3,0-4.1,1.4-4.1,1.4l-1.2-2.1c0,0,2.1-1.8,5.6-1.8
			c3.8,0,5.9,2.1,5.9,5.8v9.4h-2.6v-1.4c0-0.7,0.1-1.2,0.1-1.2h-0.1c0,0-1.2,2.9-4.8,2.9c-2.6,0-5.1-1.6-5.1-4.5
			C259.4,19.5,265.9,19.3,268.4,19.3z M265.1,26.7c2.4,0,4-2.5,4-4.7v-0.5h-0.7c-2.1,0-6,0.1-6,2.8
			C262.3,25.5,263.2,26.7,265.1,26.7z"/>
		<path fill="#1E70B5" d="M274.5,7.9h2.9v16.2c0,1.8,0.7,2.1,1.6,2.1c0.3,0,0.5,0,0.5,0v2.5c0,0-0.4,0.1-0.9,0.1c-1.6,0-4-0.4-4-4.2
			V7.9z"/>
		<path fill="#1E70B5" d="M287.7,7.9h7.6c3.8,0,6.5,2.6,6.5,6.5S299,21,295.2,21h-4.7v7.7h-2.9V7.9z M294.8,18.4c2.5,0,4-1.6,4-4.1
			c0-2.5-1.5-4-4-4h-4.2v8H294.8z"/>
		<path fill="#1E70B5" d="M303.4,13.8h2.8v2.6c0,0.6-0.1,1.1-0.1,1.1h0.1c0.7-2.2,2.4-3.9,4.7-3.9c0.4,0,0.7,0.1,0.7,0.1v2.8
			c0,0-0.4-0.1-0.8-0.1c-1.8,0-3.5,1.3-4.2,3.5c-0.3,0.9-0.4,1.8-0.4,2.7v6.1h-2.9V13.8z"/>
		<path fill="#1E70B5" d="M319.8,13.4c4.4,0,8,3.3,8,7.8c0,4.5-3.6,7.8-8,7.8c-4.4,0-8-3.3-8-7.8C311.8,16.7,315.4,13.4,319.8,13.4z
			 M319.8,26.5c2.8,0,5.1-2.2,5.1-5.3c0-3.1-2.3-5.3-5.1-5.3c-2.8,0-5.1,2.2-5.1,5.3C314.7,24.3,317.1,26.5,319.8,26.5z"/>
		<path fill="#1E70B5" d="M327.7,13.8h3l3.6,10.1c0.3,0.8,0.5,2,0.5,2h0.1c0,0,0.2-1.2,0.5-2l3.6-10.1h3l-5.5,14.9h-3.3L327.7,13.8z
			"/>
		<path fill="#1E70B5" d="M343,7.9h2.9v2.9H343V7.9z M343.1,13.8h2.9v14.9h-2.9V13.8z"/>
		<path fill="#1E70B5" d="M348.9,13.8h2.8v2c0,0.6-0.1,1.1-0.1,1.1h0.1c0.6-1.3,2.4-3.4,5.6-3.4c3.5,0,5.1,1.9,5.1,5.7v9.5h-2.9
			v-8.9c0-2.1-0.4-3.7-2.8-3.7c-2.3,0-4.1,1.5-4.7,3.6c-0.2,0.6-0.2,1.3-0.2,2v7h-2.9V13.8z"/>
		<path fill="#1E70B5" d="M372.1,13.4c3.7,0,5.6,2.2,5.6,2.2l-1.4,2c0,0-1.6-1.7-4.1-1.7c-3,0-5.2,2.2-5.2,5.3c0,3,2.2,5.3,5.3,5.3
			c2.8,0,4.6-2,4.6-2l1.1,2.1c0,0-2.1,2.4-5.9,2.4c-4.7,0-8-3.3-8-7.8C364.1,16.8,367.4,13.4,372.1,13.4z"/>
		<path fill="#1E70B5" d="M379.7,7.9h2.9v2.9h-2.9V7.9z M379.8,13.8h2.9v14.9h-2.9V13.8z"/>
		<path fill="#1E70B5" d="M393.4,19.3h0.6v-0.3c0-2.4-1.4-3.3-3.3-3.3c-2.3,0-4.1,1.4-4.1,1.4l-1.2-2.1c0,0,2.1-1.8,5.6-1.8
			c3.8,0,5.9,2.1,5.9,5.8v9.4h-2.6v-1.4c0-0.7,0.1-1.2,0.1-1.2h-0.1c0,0-1.2,2.9-4.8,2.9c-2.6,0-5.1-1.6-5.1-4.5
			C384.4,19.5,390.9,19.3,393.4,19.3z M390.1,26.7c2.4,0,4-2.5,4-4.7v-0.5h-0.7c-2.1,0-6,0.1-6,2.8
			C387.3,25.5,388.2,26.7,390.1,26.7z"/>
		<path fill="#1E70B5" d="M399.5,7.9h2.8v16.2c0,1.8,0.7,2.1,1.6,2.1c0.3,0,0.5,0,0.5,0v2.5c0,0-0.4,0.1-0.9,0.1c-1.6,0-4-0.4-4-4.2
			V7.9z"/>
		<path fill="#1E70B5" d="M412.6,7.9h2.9l9.2,13.5c0.8,1.1,1.7,3,1.7,3h0.1c0,0-0.2-1.9-0.2-3V7.9h2.9v20.8h-2.9l-9.3-13.5
			c-0.8-1.1-1.7-3-1.7-3h-0.1c0,0,0.2,1.9,0.2,3v13.5h-2.9V7.9z"/>
		<path fill="#1E70B5" d="M439.2,13.4c4.2,0,6.4,3.1,6.4,7c0,0.4-0.1,1.2-0.1,1.2h-10.8c0.1,3.3,2.5,4.9,5.1,4.9
			c2.6,0,4.4-1.7,4.4-1.7l1.2,2.1c0,0-2.2,2.1-5.8,2.1c-4.7,0-7.9-3.4-7.9-7.8C431.8,16.5,435,13.4,439.2,13.4z M442.8,19.5
			c-0.1-2.6-1.7-3.8-3.6-3.8c-2.2,0-3.9,1.4-4.3,3.8H442.8z"/>
		<path fill="#1E70B5" d="M447.5,13.8h2.9v8.9c0,2.1,0.4,3.7,2.8,3.7c3,0,4.8-2.7,4.8-5.6v-7h2.9v14.9H458v-2c0-0.6,0.1-1.1,0.1-1.1
			H458c-0.6,1.5-2.6,3.4-5.5,3.4c-3.4,0-5.1-1.8-5.1-5.7V13.8z"/>
		<path fill="#1E70B5" d="M469.5,13.4c3.4,0,4.7,2.5,4.7,2.5h0.1c0,0,0-0.4,0-1v-1.1h2.7v20.8h-2.8v-6.8c0-0.8,0.1-1.3,0.1-1.3h-0.1
			c0,0-1.2,2.6-4.8,2.6c-4,0-6.6-3.2-6.6-7.8C462.8,16.5,465.6,13.4,469.5,13.4z M469.9,26.5c2.2,0,4.3-1.6,4.3-5.3
			c0-2.6-1.4-5.3-4.2-5.3c-2.4,0-4.3,1.9-4.3,5.3C465.7,24.4,467.4,26.5,469.9,26.5z"/>
		<path fill="#1E70B5" d="M479.8,13.8h2.9v8.9c0,2.1,0.4,3.7,2.8,3.7c3,0,4.8-2.7,4.8-5.6v-7h2.9v14.9h-2.8v-2
			c0-0.6,0.1-1.1,0.1-1.1h-0.1c-0.6,1.5-2.6,3.4-5.5,3.4c-3.4,0-5.1-1.8-5.1-5.7V13.8z"/>
		<path fill="#1E70B5" d="M502.5,13.4c4.2,0,6.4,3.1,6.4,7c0,0.4-0.1,1.2-0.1,1.2H498c0.1,3.3,2.5,4.9,5.1,4.9
			c2.6,0,4.4-1.7,4.4-1.7l1.2,2.1c0,0-2.2,2.1-5.8,2.1c-4.7,0-7.9-3.4-7.9-7.8C495,16.5,498.2,13.4,502.5,13.4z M506,19.5
			c-0.1-2.6-1.7-3.8-3.6-3.8c-2.2,0-3.9,1.4-4.3,3.8H506z M503.4,7.9h3.1l-2.8,3.7h-2.4L503.4,7.9z"/>
		<path fill="#1E70B5" d="M510.9,13.8h2.8v2c0,0.6-0.1,1.1-0.1,1.1h0.1c0.6-1.3,2.3-3.4,5.6-3.4c3.5,0,5.1,1.9,5.1,5.7v9.5h-2.9
			v-8.9c0-2.1-0.4-3.7-2.8-3.7c-2.3,0-4.1,1.5-4.7,3.6c-0.2,0.6-0.2,1.3-0.2,2v7h-2.9V13.8z"/>
	</g>
	<g>
		<path fill="#3EB4E7" stroke="#3EB4E7" stroke-width="0.5" stroke-miterlimit="10" d="M180.4,37.3h4.8c4.6,0,7.7,2.8,7.7,7.7
			c0,4.9-3.1,7.7-7.7,7.7h-4.8V37.3z M185.1,51.8c4.1,0,6.9-2.4,6.9-6.8c0-4.4-2.8-6.8-6.9-6.8h-3.7v13.7H185.1z"/>
		<path fill="#3EB4E7" stroke="#3EB4E7" stroke-width="0.5" stroke-miterlimit="10" d="M196.3,41.7h0.9v2.1c0,0.5-0.1,0.9-0.1,0.9h0
			c0.6-1.7,1.8-3.1,3.5-3.1c0.3,0,0.6,0.1,0.6,0.1v0.9c0,0-0.3,0-0.5,0c-1.7,0-2.8,1.5-3.3,3.1c-0.2,0.8-0.3,1.6-0.3,2.3v4.8h-0.9
			V41.7z"/>
		<path fill="#3EB4E7" stroke="#3EB4E7" stroke-width="0.5" stroke-miterlimit="10" d="M203,51.3h1.3v1.4H203V51.3z"/>
		<path fill="#3EB4E7" stroke="#3EB4E7" stroke-width="0.5" stroke-miterlimit="10" d="M214.8,37.3h8.4v0.9h-7.5v6.3h6.1v0.9h-6.1
			v6.5h7.9v0.9h-8.9V37.3z"/>
		<path fill="#3EB4E7" stroke="#3EB4E7" stroke-width="0.5" stroke-miterlimit="10" d="M231.1,41.4c2.8,0,3.8,2.5,3.8,2.5h0
			c0,0-0.1-0.4-0.1-0.9v-5.7h0.9v15.4h-0.9v-1.4c0-0.5,0.1-0.8,0.1-0.8h0c0,0-0.9,2.5-4,2.5c-3,0-4.8-2.4-4.8-5.8
			C226.2,43.7,228.2,41.4,231.1,41.4z M231,52.1c2,0,3.9-1.4,3.9-4.9c0-2.4-1.3-4.8-3.8-4.8c-2.2,0-3.9,1.8-3.9,4.9
			C227.2,50.2,228.7,52.1,231,52.1z"/>
		<path fill="#3EB4E7" stroke="#3EB4E7" stroke-width="0.5" stroke-miterlimit="10" d="M239.5,41.7h0.9v6.7c0,1.9,0.2,3.7,2.7,3.7
			c2.8,0,4.5-2.4,4.5-5v-5.4h0.9v11h-0.9v-1.9c0-0.5,0.1-0.9,0.1-0.9h0c-0.4,1-1.9,3.1-4.6,3.1c-2.7,0-3.6-1.5-3.6-4.3V41.7z"/>
		<path fill="#3EB4E7" stroke="#3EB4E7" stroke-width="0.5" stroke-miterlimit="10" d="M258.4,46h0.7v-0.4c0-2.4-1.3-3.3-3-3.3
			c-1.9,0-3.2,1.1-3.2,1.1l-0.5-0.7c0,0,1.3-1.2,3.7-1.2c2.5,0,3.9,1.4,3.9,4.2v7.1h-0.9v-1.5c0-0.6,0.1-1,0.1-1h0
			c0,0-1,2.7-3.9,2.7c-1.8,0-3.7-1-3.7-3.2C251.6,46,256.5,46,258.4,46z M255.4,52.1c2.4,0,3.8-2.5,3.8-4.7v-0.6h-0.7
			c-1.9,0-5.9,0-5.9,2.9C252.6,50.9,253.5,52.1,255.4,52.1z"/>
		<path fill="#3EB4E7" stroke="#3EB4E7" stroke-width="0.5" stroke-miterlimit="10" d="M263.8,41.7h0.9v2.1c0,0.5-0.1,0.9-0.1,0.9h0
			c0.6-1.7,1.8-3.1,3.5-3.1c0.3,0,0.6,0.1,0.6,0.1v0.9c0,0-0.3,0-0.5,0c-1.7,0-2.8,1.5-3.3,3.1c-0.2,0.8-0.3,1.6-0.3,2.3v4.8h-0.9
			V41.7z"/>
		<path fill="#3EB4E7" stroke="#3EB4E7" stroke-width="0.5" stroke-miterlimit="10" d="M275.3,41.4c2.8,0,3.8,2.5,3.8,2.5h0
			c0,0-0.1-0.4-0.1-0.9v-5.7h0.9v15.4h-0.9v-1.4c0-0.5,0.1-0.8,0.1-0.8h0c0,0-0.9,2.5-4,2.5c-3,0-4.8-2.4-4.8-5.8
			C270.4,43.7,272.4,41.4,275.3,41.4z M275.2,52.1c2,0,3.9-1.4,3.9-4.9c0-2.4-1.3-4.8-3.8-4.8c-2.2,0-3.9,1.8-3.9,4.9
			C271.3,50.2,272.9,52.1,275.2,52.1z"/>
		<path fill="#3EB4E7" stroke="#3EB4E7" stroke-width="0.5" stroke-miterlimit="10" d="M288.8,41.4c3.2,0,5.7,2.5,5.7,5.7
			c0,3.3-2.6,5.8-5.7,5.8c-3.2,0-5.7-2.6-5.7-5.8C283.1,43.9,285.6,41.4,288.8,41.4z M288.8,52.1c2.6,0,4.7-2.1,4.7-4.9
			c0-2.7-2.1-4.8-4.7-4.8c-2.6,0-4.7,2.1-4.7,4.8C284,49.9,286.2,52.1,288.8,52.1z"/>
		<path fill="#3EB4E7" stroke="#3EB4E7" stroke-width="0.5" stroke-miterlimit="10" d="M310.7,37c3.7,0,5.5,1.9,5.5,1.9l-0.6,0.7
			c0,0-1.8-1.7-4.9-1.7c-3.8,0-6.7,3-6.7,7c0,4,2.9,7.2,6.7,7.2c3.3,0,5.2-2.1,5.2-2.1l0.6,0.7c0,0-2.1,2.3-5.8,2.3
			c-4.5,0-7.7-3.6-7.7-8.1C303.1,40.4,306.4,37,310.7,37z"/>
		<path fill="#3EB4E7" stroke="#3EB4E7" stroke-width="0.5" stroke-miterlimit="10" d="M325.8,46h0.7v-0.4c0-2.4-1.3-3.3-3-3.3
			c-1.9,0-3.2,1.1-3.2,1.1l-0.5-0.7c0,0,1.3-1.2,3.7-1.2c2.5,0,3.9,1.4,3.9,4.2v7.1h-0.9v-1.5c0-0.6,0.1-1,0.1-1h0
			c0,0-1,2.7-3.9,2.7c-1.8,0-3.7-1-3.7-3.2C318.9,46,323.8,46,325.8,46z M322.7,52.1c2.4,0,3.8-2.5,3.8-4.7v-0.6h-0.7
			c-1.9,0-5.9,0-5.9,2.9C319.9,50.9,320.8,52.1,322.7,52.1z"/>
		<path fill="#3EB4E7" stroke="#3EB4E7" stroke-width="0.5" stroke-miterlimit="10" d="M330.8,50.7c0,0,1.2,1.4,3.4,1.4
			c1.3,0,2.5-0.7,2.5-2.1c0-2.8-6.1-2-6.1-5.6c0-2,1.7-3,3.5-3c2.2,0,3.3,1.2,3.3,1.2l-0.6,0.7c0,0-0.9-1-2.8-1
			c-1.3,0-2.5,0.6-2.5,2c0,2.9,6.1,2,6.1,5.7c0,1.8-1.5,3-3.5,3c-2.7,0-4-1.6-4-1.6L330.8,50.7z"/>
		<path fill="#3EB4E7" stroke="#3EB4E7" stroke-width="0.5" stroke-miterlimit="10" d="M341.1,42.6h-1.5v-0.8h1.5v-3.1h0.9v3.1h2.9
			v0.8H342v6.1c0,2.9,1.7,3.3,2.6,3.3c0.3,0,0.5,0,0.5,0v0.9c0,0-0.2,0-0.6,0c-1.1,0-3.5-0.4-3.5-4.1V42.6z"/>
		<path fill="#3EB4E7" stroke="#3EB4E7" stroke-width="0.5" stroke-miterlimit="10" d="M347.7,41.7h0.9v2.1c0,0.5-0.1,0.9-0.1,0.9h0
			c0.6-1.7,1.8-3.1,3.5-3.1c0.3,0,0.6,0.1,0.6,0.1v0.9c0,0-0.3,0-0.5,0c-1.7,0-2.8,1.5-3.3,3.1c-0.2,0.8-0.3,1.6-0.3,2.3v4.8h-0.9
			V41.7z"/>
		<path fill="#3EB4E7" stroke="#3EB4E7" stroke-width="0.5" stroke-miterlimit="10" d="M359.7,41.4c3.2,0,5.7,2.5,5.7,5.7
			c0,3.3-2.6,5.8-5.7,5.8c-3.2,0-5.7-2.6-5.7-5.8C354,43.9,356.6,41.4,359.7,41.4z M359.7,52.1c2.6,0,4.7-2.1,4.7-4.9
			c0-2.7-2.1-4.8-4.7-4.8c-2.6,0-4.7,2.1-4.7,4.8C355,49.9,357.1,52.1,359.7,52.1z"/>
		<path fill="#3EB4E7" stroke="#3EB4E7" stroke-width="0.5" stroke-miterlimit="10" d="M375.1,37.3h4.5c1.4,0,2.2,0.2,2.8,0.5
			c1.3,0.6,2.1,1.9,2.1,3.7c0,2.2-1.3,3.9-3.1,4.3v0c0,0,0.2,0.2,0.4,0.6l3.5,6.4h-1.1l-3.7-6.8H376v6.8h-0.9V37.3z M380.2,45
			c2,0,3.3-1.5,3.3-3.5c0-1.4-0.7-2.5-1.8-3c-0.4-0.2-0.9-0.3-2.2-0.3H376V45H380.2z"/>
		<path fill="#3EB4E7" stroke="#3EB4E7" stroke-width="0.5" stroke-miterlimit="10" d="M392.8,41.4c3,0,4.5,2.4,4.5,5
			c0,0.2,0,0.6,0,0.6h-8.8c0,3.2,2.2,5,4.7,5c2.1,0,3.4-1.4,3.4-1.4l0.5,0.8c0,0-1.5,1.5-3.9,1.5c-3.1,0-5.7-2.2-5.7-5.8
			C387.4,43.5,390,41.4,392.8,41.4z M396.3,46.2c-0.1-2.7-1.7-3.9-3.6-3.9c-2,0-3.9,1.3-4.3,3.9H396.3z"/>
		<path fill="#3EB4E7" stroke="#3EB4E7" stroke-width="0.5" stroke-miterlimit="10" d="M400.4,41.7h0.9v1.9c0,0.5-0.1,0.9-0.1,0.9h0
			c0.4-1,1.9-3.1,4.7-3.1c2.9,0,3.6,1.7,3.6,4.3v7h-0.9v-6.7c0-1.9-0.2-3.7-2.7-3.7c-2.1,0-3.9,1.5-4.5,3.5c-0.1,0.5-0.2,1-0.2,1.5
			v5.4h-0.9V41.7z"/>
		<path fill="#3EB4E7" stroke="#3EB4E7" stroke-width="0.5" stroke-miterlimit="10" d="M417.5,41.4c2.8,0,3.8,2.5,3.8,2.5h0
			c0,0-0.1-0.4-0.1-0.9v-5.7h0.9v15.4h-0.9v-1.4c0-0.5,0.1-0.8,0.1-0.8h0c0,0-0.9,2.5-4,2.5c-3,0-4.8-2.4-4.8-5.8
			C412.6,43.7,414.6,41.4,417.5,41.4z M417.4,52.1c2,0,3.9-1.4,3.9-4.9c0-2.4-1.3-4.8-3.8-4.8c-2.2,0-3.9,1.8-3.9,4.9
			C413.5,50.2,415.1,52.1,417.4,52.1z"/>
		<path fill="#3EB4E7" stroke="#3EB4E7" stroke-width="0.5" stroke-miterlimit="10" d="M431,41.4c3.2,0,5.7,2.5,5.7,5.7
			c0,3.3-2.6,5.8-5.7,5.8c-3.2,0-5.7-2.6-5.7-5.8C425.3,43.9,427.8,41.4,431,41.4z M431,52.1c2.6,0,4.7-2.1,4.7-4.9
			c0-2.7-2.1-4.8-4.7-4.8c-2.6,0-4.7,2.1-4.7,4.8C426.2,49.9,428.3,52.1,431,52.1z M431.9,37.3h1.2l-1.7,2.4h-1L431.9,37.3z"/>
		<path fill="#3EB4E7" stroke="#3EB4E7" stroke-width="0.5" stroke-miterlimit="10" d="M439.7,41.7h0.9v1.9c0,0.5-0.1,0.9-0.1,0.9h0
			c0.4-1,1.9-3.1,4.7-3.1c2.9,0,3.6,1.7,3.6,4.3v7H448v-6.7c0-1.9-0.2-3.7-2.7-3.7c-2.1,0-3.9,1.5-4.5,3.5c-0.1,0.5-0.2,1-0.2,1.5
			v5.4h-0.9V41.7z"/>
	</g>
	<path fill="#1E70B5" d="M157.6,7.6V53H30.3C17.7,53,7.6,42.8,7.6,30.3c0-12.5,10.2-22.7,22.7-22.7H157.6 M158.9,6.2h-1.4H30.3
		C17,6.2,6.2,17,6.2,30.3c0,13.3,10.8,24.1,24.1,24.1h127.3h1.4V53V7.6V6.2L158.9,6.2z"/>
</g>
</svg>
