<?xml version="1.0" encoding="utf-8"?>
<!-- Generator: Adobe Illustrator 22.0.1, SVG Export Plug-In . SVG Version: 6.00 Build 0)  -->
<svg version="1.1" id="Layer_1" xmlns="http://www.w3.org/2000/svg" xmlns:xlink="http://www.w3.org/1999/xlink" x="0px" y="0px"
	 viewBox="0 0 133.6 133.6" enable-background="new 0 0 133.6 133.6" xml:space="preserve">
<g>
	<g>
		<path fill="#FFFFFF" d="M66.8,0C29.8,0,0,29.8,0,66.8c0,37,29.8,66.8,66.8,66.8s66.8-29.8,66.8-66.8C133.6,29.8,103.7,0,66.8,0z
			 M66.8,130c-1.5,0-2.9-0.1-4.4-0.2l2.7-12.4l4.3,0l4.2,12.3C71.4,129.9,69.1,130,66.8,130z M66.8,91.5c0,0-12.7-10.4-12.7-15.4
			c0-3.8,3-6.8,6.8-6.8c2.6,0,4.9,1.5,6,3.7c1.1-2.1,3.4-3.7,6-3.7c3.8,0,6.8,3,6.8,6.8C79.5,81.4,66.8,91.5,66.8,91.5z M89.9,125.7
			c-1.2-8.9-4.3-26.2-4.3-26.2l-0.3-17.9l15.9,17.7c1.4,1.5,3.4,2.3,5.3,2.3c1.8,0,3.5-0.6,4.9-1.9c2.9-2.7,3.1-7.3,0.3-10.2
			L86.8,61.9c-4.3-4.3-10.4-7-19.5-7c-9.1,0-15.6,2.2-20.3,6.8L21.9,89.5c-2.7,2.9-2.6,7.5,0.3,10.2c1.4,1.3,3.2,1.9,4.9,1.9
			c1.9,0,3.9-0.8,5.3-2.3l15.9-17.7v20.7c0,0-1.3,17.1-1.5,24.4c-25.2-8.3-43.3-32-43.3-60c0-35,28.3-63.2,63.2-63.2
			c35,0.2,63,28.3,63.2,63.2C130,93.6,113.4,116.4,89.9,125.7z"/>
	</g>
	<g>
		<path fill="#FFFFFF" d="M66.8,17.4c-9.4,0-17,7.6-17,17c0,9.4,7.6,17,17,17c9.4,0,17-7.6,17-17C83.8,25.1,76.2,17.4,66.8,17.4z"/>
	</g>
</g>
</svg>
